<svg class="main-svg" xmlns="http://www.w3.org/2000/svg" xmlns:xlink="http://www.w3.org/1999/xlink" width="2200" height="1000" viewBox="0 0 1100 500" style=""><rect x="0" y="0" width="1100" height="500" style="fill: rgb(255, 255, 255); fill-opacity: 1;"/><defs id="defs-7b2d5f"><g class="clips"><clipPath id="clip7b2d5fxyplot" class="plotclip"><rect width="1025" height="385"/></clipPath><clipPath class="axesclip" id="clip7b2d5fx"><rect x="60" y="0" width="1025" height="500"/></clipPath><clipPath class="axesclip" id="clip7b2d5fy"><rect x="0" y="50" width="1100" height="385"/></clipPath><clipPath class="axesclip" id="clip7b2d5fxy"><rect x="60" y="50" width="1025" height="385"/></clipPath></g><g class="gradients"/><g class="patterns"/></defs><g class="bglayer"/><g class="layer-below"><g class="imagelayer"/><g class="shapelayer"/></g><g class="cartesianlayer"><g class="subplot xy"><g class="layer-subplot"><g class="shapelayer"/><g class="imagelayer"/></g><g class="minor-gridlayer"><g class="x"/><g class="y"/></g><g class="gridlayer"><g class="x"><path class="xgrid crisp" transform="translate(190.7,0)" d="M0,50v385" style="stroke: rgb(128, 128, 128); stroke-opacity: 0.15; stroke-width: 1px;"/><path class="xgrid crisp" transform="translate(328.29,0)" d="M0,50v385" style="stroke: rgb(128, 128, 128); stroke-opacity: 0.15; stroke-width: 1px;"/><path class="xgrid crisp" transform="translate(465.87,0)" d="M0,50v385" style="stroke: rgb(128, 128, 128); stroke-opacity: 0.15; stroke-width: 1px;"/><path class="xgrid crisp" transform="translate(603.46,0)" d="M0,50v385" style="stroke: rgb(128, 128, 128); stroke-opacity: 0.15; stroke-width: 1px;"/><path class="xgrid crisp" transform="translate(741.04,0)" d="M0,50v385" style="stroke: rgb(128, 128, 128); stroke-opacity: 0.15; stroke-width: 1px;"/><path class="xgrid crisp" transform="translate(878.62,0)" d="M0,50v385" style="stroke: rgb(128, 128, 128); stroke-opacity: 0.15; stroke-width: 1px;"/><path class="xgrid crisp" transform="translate(1016.21,0)" d="M0,50v385" style="stroke: rgb(128, 128, 128); stroke-opacity: 0.15; stroke-width: 1px;"/></g><g class="y"><path class="ygrid crisp" transform="translate(0,358)" d="M60,0h1025" style="stroke: rgb(128, 128, 128); stroke-opacity: 0.15; stroke-width: 1px;"/><path class="ygrid crisp" transform="translate(0,281)" d="M60,0h1025" style="stroke: rgb(128, 128, 128); stroke-opacity: 0.15; stroke-width: 1px;"/><path class="ygrid crisp" transform="translate(0,204)" d="M60,0h1025" style="stroke: rgb(128, 128, 128); stroke-opacity: 0.15; stroke-width: 1px;"/><path class="ygrid crisp" transform="translate(0,127)" d="M60,0h1025" style="stroke: rgb(128, 128, 128); stroke-opacity: 0.15; stroke-width: 1px;"/></g></g><g class="zerolinelayer"><path class="yzl zl crisp" transform="translate(0,435)" d="M60,0h1025" style="stroke: rgb(128, 128, 128); stroke-opacity: 0.2; stroke-width: 1px;"/></g><g class="layer-between"><g class="shapelayer"/><g class="imagelayer"/></g><path class="xlines-below"/><path class="ylines-below"/><g class="overlines-below"/><g class="xaxislayer-below"/><g class="yaxislayer-below"/><g class="overaxes-below"/><g class="overplot"><g class="xy" transform="translate(60,50)" clip-path="url(#clip7b2d5fxyplot)"><g class="scatterlayer mlayer"><g class="trace scatter trace0fcc17" style="stroke-miterlimit: 2; opacity: 1;"><g class="fills"/><g class="errorbars"/><g class="lines"><path class="js-line" d="M0,270.07L6.88,155.09L13.76,224.19L20.64,213.57L27.52,225.48L34.4,271.4L41.28,205.21L48.15,236.63L55.03,282.37L61.91,206.41L68.79,179.36L75.67,238.74L82.55,282.2L89.43,260.05L96.31,188.81L103.19,265.83L110.07,239.84L116.95,285.04L123.83,211.19L130.7,215.7L137.58,242.62L144.46,263.96L151.34,201.44L158.22,186.61L165.1,223.88L171.98,225.09L178.86,153.61L185.74,190.55L192.62,169.54L199.5,210.4L206.38,220.72L213.26,174.91L220.13,199.51L227.01,166.21L233.89,151.27L240.77,233.01L247.65,201.98L254.53,223.08L261.41,155.88L268.29,157.56L275.17,205.75L282.05,218.05L288.93,240.65L295.81,228.05L302.68,249.88L309.56,237.16L316.44,208.34L323.32,194.28L330.2,204.62L337.08,142.94L343.96,213.1L350.84,201.76L357.72,247.19L364.6,188.68L371.48,256.28L378.36,160.38L385.23,248.77L392.11,249.68L398.99,213.33L405.87,183.37L412.75,158.08L419.63,149.48L426.51,247.07L433.39,172.5L440.27,265.95L447.15,226.32L454.03,181.31L460.91,193.43L467.79,244.14L474.66,216.15L481.54,259.31L488.42,245.76L495.3,207.73L502.18,175.81L509.06,156.16L515.94,144.5L522.82,160.96L529.7,220L536.58,196.88L543.46,232.37L550.34,226.76L557.21,196.99L564.09,217.23L570.97,205.62L577.85,212.71L584.73,233.43L591.61,263.27L598.49,235.03L605.37,222.66L612.25,260.56L619.13,245.67L626.01,262.68L632.89,226.89L639.77,214.71L646.64,160.48L653.52,101.8L660.4,155.08L667.28,127.07L674.16,112.93L681.04,117.84L687.92,76.23L694.8,109.55L701.68,99.01L708.56,112.41L715.44,103.8L722.32,106.33L729.19,88.22L736.07,118.64L742.95,78.73L749.83,71.24L756.71,101.18L763.59,119.53L770.47,81.91L777.35,89.57L784.23,82.67L791.11,47.12L797.99,91.75L804.87,101.29L811.74,65.51L818.62,106.82L825.5,92.12L832.38,81.7L839.26,79.11L846.14,69.35L853.02,66.61L859.9,99.35L866.78,111.76L873.66,77.11L880.54,112.38L887.42,113.66L894.3,93.59L901.17,122.3L908.05,107.8L914.93,84.47L921.81,83.75L928.69,81.85L935.57,68.06L942.45,67.93L949.33,69.37L956.21,60.46L963.09,47.86L969.97,40.78L976.85,37.04L983.72,13.14L990.6,10.38L1004.36,8.81L1011.24,6.91L1025,4.2" style="vector-effect: none; fill: none; stroke: rgb(124, 181, 236); stroke-opacity: 1; stroke-width: 2px; opacity: 1;"/></g><g class="points"/><g class="text"/></g><g class="trace scatter traced5fdff" style="stroke-miterlimit: 2; opacity: 1;"><g class="fills"/><g class="errorbars"/><g class="lines"><path class="js-line" d="M0,277.92L6.88,166.74L13.76,226.56L20.64,215.48L27.52,233.32L34.4,285.24L41.28,212.53L48.15,240.05L55.03,296.32L61.91,213.93L68.79,178.29L82.55,297.15L89.43,264.17L96.31,194.01L103.19,269.65L110.07,260.78L116.95,286.97L123.83,209.29L130.7,206.73L137.58,249.73L144.46,262.39L151.34,206.23L158.22,175.89L165.1,225.29L171.98,217.38L178.86,147.05L185.74,193.5L192.62,183.66L199.5,222.32L206.38,223.5L213.26,172.68L220.13,192.67L227.01,164.09L233.89,149.36L240.77,239.43L247.65,196.76L254.53,227.84L261.41,159.32L268.29,160.13L275.17,218.03L282.05,213.7L288.93,242.02L295.81,226.63L302.68,256.03L309.56,244.95L316.44,201.79L323.32,199.32L330.2,195.23L337.08,157.38L343.96,192.22L350.84,195.55L357.72,243.27L364.6,185L371.48,243.19L378.36,147.84L385.23,207.25L392.11,189.47L398.99,156.45L405.87,245.57L412.75,196.63L419.63,222.64L426.51,266.2L433.39,154.56L440.27,253.07L447.15,232.87L454.03,165.59L460.91,189.94L467.79,185.78L474.66,184.94L481.54,244.83L488.42,240.29L495.3,228.27L502.18,203.71L509.06,158.24L515.94,142.38L522.82,147.81L529.7,204.13L536.58,185.22L543.46,235.05L550.34,250.7L557.21,218.92L564.09,256.79L570.97,225.83L577.85,228.92L584.73,250.85L591.61,267.75L598.49,253.14L605.37,243.06L612.25,269.83L619.13,251.04L626.01,270.02L639.77,228.2L646.64,203.67L653.52,103.36L660.4,135.26L667.28,88.73L674.16,102.81L681.04,136.01L687.92,89.9L694.8,140.36L701.68,98.1L708.56,91.25L715.44,107.47L722.32,115.48L729.19,80.55L736.07,107.58L742.95,95.21L749.83,70.63L756.71,106.19L763.59,95.59L770.47,87.42L777.35,94.91L784.23,78.27L791.11,41L797.99,77.88L804.87,93.03L811.74,80.69L818.62,112.41L825.5,103.49L832.38,105.75L839.26,117.73L846.14,121.09L853.02,91.8L859.9,130.1L866.78,135.67L873.66,123.01L880.54,136.2L887.42,135.22L894.3,128.3L901.17,139.96L908.05,140.51L914.93,120.91L921.81,110.83L928.69,94.22L935.57,90.72L942.45,76.58L949.33,73.37L956.21,70.7L963.09,57.41L969.97,46.54L976.85,39.23L983.72,26.45L990.6,15.75L997.48,13.44L1004.36,12.71L1025,6.8" style="vector-effect: none; fill: none; stroke: rgb(67, 67, 72); stroke-opacity: 1; stroke-width: 2px; opacity: 1;"/></g><g class="points"/><g class="text"/></g><g class="trace scatter traceddd253" style="stroke-miterlimit: 2; opacity: 1;"><g class="fills"/><g class="errorbars"/><g class="lines"><path class="js-line" d="M0,279.53L6.88,175.09L13.76,222.74L20.64,217.35L27.52,236.38L34.4,282.53L41.28,212.34L48.15,244.95L55.03,305.56L61.91,211.99L68.79,175.16L82.55,295.06L89.43,264.21L96.31,195.2L103.19,265.93L110.07,265.14L116.95,295.87L123.83,202.74L130.7,209.87L137.58,243.07L144.46,259.93L151.34,201.14L158.22,173.82L165.1,226.1L171.98,219.2L178.86,147.05L185.74,194.79L192.62,182.82L199.5,225.41L206.38,225.92L213.26,170.78L220.13,197.26L227.01,170.51L233.89,148.51L240.77,245.03L247.65,195.54L254.53,234.01L261.41,160.58L268.29,166.16L275.17,226.37L282.05,216.66L288.93,246.23L295.81,224.75L302.68,260.65L309.56,250.27L316.44,200.76L323.32,207.8L330.2,205.49L337.08,153.72L343.96,224.23L350.84,195.33L357.72,249.93L364.6,181.82L371.48,237.96L378.36,131.07L385.23,171.02L392.11,205.71L398.99,235.37L405.87,269.98L412.75,251.06L419.63,171.57L426.51,248.54L433.39,151.85L440.27,271.61L447.15,246.95L454.03,194.3L460.91,208.24L467.79,236.43L474.66,211.89L481.54,264.32L488.42,242.22L495.3,223.23L502.18,188.79L509.06,166.55L515.94,156.07L522.82,159.93L529.7,220.45L536.58,183.31L543.46,231.47L550.34,244.54L557.21,210.4L564.09,248.12L570.97,222.4L577.85,223.54L584.73,246.64L591.61,262.69L598.49,253.6L605.37,226.9L612.25,264.64L619.13,255.52L626.01,259.04L639.77,216.19L646.64,171.08L653.52,89.85L660.4,110.54L667.28,103.64L674.16,130.47L681.04,155.51L687.92,111.97L694.8,104.93L701.68,92.15L708.56,105.45L715.44,131.34L722.32,124.84L729.19,94.91L736.07,145.29L742.95,124.84L749.83,110.73L756.71,117.3L763.59,121.36L770.47,107.51L777.35,116.43L784.23,102.18L791.11,62.49L797.99,100.09L804.87,126.24L811.74,91.85L818.62,133.79L825.5,114.58L832.38,114.33L839.26,127.38L846.14,130.21L853.02,103.71L859.9,145.16L866.78,150.69L873.66,132.5L880.54,149.78L887.42,150.67L894.3,139.82L901.17,155.59L908.05,156.54L914.93,129.54L921.81,115.05L928.69,103.14L935.57,100.89L942.45,83.92L949.33,85.25L956.21,76.6L963.09,59.15L969.97,47.16L976.85,40.98L983.72,24.66L990.6,17.8L1004.36,15.26L1011.24,12.28L1018.12,9.24L1025,7.28" style="vector-effect: none; fill: none; stroke: rgb(144, 237, 125); stroke-opacity: 1; stroke-width: 2px; opacity: 1;"/></g><g class="points"/><g class="text"/></g><g class="trace scatter tracecd2177" style="stroke-miterlimit: 2; opacity: 1;"><g class="fills"/><g class="errorbars"/><g class="lines"><path class="js-line" d="M0,264.52L6.88,178.24L13.76,214.21L20.64,200.75L27.52,226.63L34.4,275.06L41.28,213.45L48.15,227.2L55.03,311.7L61.91,209.82L68.79,166.9L75.67,239.53L82.55,282.48L89.43,271.96L96.31,212.21L103.19,261.31L110.07,240.79L116.95,283.07L123.83,215.33L130.7,213.5L137.58,246.89L144.46,253.84L151.34,207.54L158.22,187.31L165.1,227.21L171.98,209.55L178.86,154.69L185.74,193.9L192.62,170.66L199.5,223.42L206.38,226.23L213.26,181.57L220.13,200.5L227.01,186.86L233.89,158.12L240.77,235.44L247.65,206.04L254.53,227.82L261.41,165.61L268.29,180.72L275.17,219.97L282.05,216.23L288.93,243.32L295.81,224.21L302.68,260.67L309.56,262.03L316.44,214.17L323.32,220.38L330.2,209.16L337.08,148.65L343.96,220.66L350.84,190.53L357.72,249.61L364.6,199.85L371.48,251.12L378.36,152.2L385.23,164.09L392.11,233.3L398.99,187.55L405.87,247.14L412.75,250.06L419.63,180.3L426.51,186.68L433.39,218.28L440.27,259.13L447.15,250L454.03,183.09L474.66,173.65L481.54,222.67L488.42,217.07L495.3,212.77L502.18,207.79L509.06,172.22L515.94,156.3L522.82,158.99L529.7,196.59L536.58,198.08L543.46,231.12L550.34,240.49L557.21,249.44L564.09,243.48L570.97,239.71L577.85,233.04L584.73,245.53L591.61,264.43L598.49,242.88L605.37,230.97L612.25,246.34L619.13,243.4L626.01,264.35L632.89,226.72L639.77,231.21L646.64,181.87L653.52,100.83L660.4,131.91L667.28,127.19L674.16,118.51L681.04,150.5L687.92,128.71L694.8,98.84L701.68,86.31L708.56,149.22L715.44,126.38L722.32,122.73L729.19,125.89L736.07,98.94L742.95,94.77L749.83,101.88L756.71,93.77L763.59,81.17L770.47,107.7L777.35,108.65L784.23,86.22L791.11,42.46L797.99,89.27L804.87,109.69L811.74,112.63L818.62,126.97L825.5,131.03L832.38,137.83L839.26,137.98L846.14,158.48L853.02,133.42L859.9,160.75L866.78,168.26L873.66,162.07L880.54,163.88L894.3,163.83L901.17,168.75L908.05,166.46L914.93,147.6L921.81,121.23L928.69,102.15L935.57,99.53L942.45,86.29L949.33,79.05L956.21,74.84L963.09,59.25L969.97,48.03L976.85,41.83L983.72,26.33L990.6,19.62L997.48,17.62L1004.36,15.34L1011.24,10.21L1025,6.17" style="vector-effect: none; fill: none; stroke: rgb(247, 163, 92); stroke-opacity: 1; stroke-width: 2px; opacity: 1;"/></g><g class="points"/><g class="text"/></g><g class="trace scatter tracec29855" style="stroke-miterlimit: 2; opacity: 1;"><g class="fills"/><g class="errorbars"/><g class="lines"><path class="js-line" d="M0,292.33L6.88,131.45L13.76,209.59L20.64,213.64L27.52,216.14L34.4,247.86L41.28,258.53L48.15,204.53L55.03,274.19L61.91,219.79L68.79,148.51L75.67,227.78L82.55,260.8L89.43,240.77L96.31,135.12L103.19,307.23L110.07,205.86L116.95,218.55L123.83,253.09L130.7,164.05L137.58,231.26L144.46,285.09L151.34,260.5L158.22,187.27L165.1,278.23L171.98,247.56L178.86,154.2L185.74,102.3L192.62,88.46L199.5,210.41L206.38,245.12L213.26,180.48L220.13,225.71L227.01,128.2L233.89,121.82L240.77,216.61L247.65,161.1L254.53,223.66L261.41,125.96L268.29,114.17L275.17,200.57L282.05,169.3L288.93,236.14L295.81,170.39L302.68,261.37L309.56,242.78L316.44,195.05L323.32,207.87L330.2,141.73L337.08,109.63L343.96,197.16L350.84,172.21L357.72,233.52L364.6,153.76L371.48,241.18L378.36,117.91L385.23,152.47L392.11,222.99L398.99,257.11L405.87,165.41L412.75,120.92L419.63,232.32L426.51,259.63L433.39,184.86L440.27,264.93L447.15,253.84L454.03,179.64L460.91,242.09L467.79,259.74L474.66,171.94L481.54,262.69L488.42,286.58L495.3,268.18L502.18,208.03L509.06,126.81L515.94,83.18L522.82,141.61L529.7,222.8L536.58,192.11L543.46,281.21L550.34,275.58L557.21,223.03L564.09,253.23L570.97,236.54L577.85,169.27L584.73,260.11L591.61,303.51L598.49,268.18L605.37,289.07L612.25,302.63L619.13,294.51L626.01,331.14L632.89,288.54L639.77,278.02L646.64,153.88L653.52,73.81L660.4,81.33L667.28,62.96L674.16,58.23L681.04,73.84L687.92,52.06L694.8,64.06L701.68,47.25L708.56,52.86L715.44,35.19L722.32,24.85L729.19,36.97L736.07,39.75L742.95,19.88L749.83,16.21L756.71,35.04L763.59,35.54L770.47,16.88L777.35,29.83L784.23,27.23L791.11,9.06L797.99,27.61L804.87,24.9L811.74,14.01L818.62,28.48L825.5,26.44L832.38,26.2L839.26,13.77L846.14,18.5L853.02,12.16L859.9,19.15L866.78,32.32L873.66,17.24L880.54,31.25L887.42,32.02L894.3,19.62L901.17,33.2L908.05,25.83L914.93,17.55L921.81,26.38L928.69,25.03L935.57,19.34L942.45,20.19L949.33,22.65L956.21,21.73L963.09,19.05L976.85,16.08L983.72,3.03L990.6,1.84L997.48,1.68L1025,1.07" style="vector-effect: none; fill: none; stroke: rgb(128, 133, 233); stroke-opacity: 1; stroke-width: 2px; opacity: 1;"/></g><g class="points"/><g class="text"/></g><g class="trace scatter tracefc53c2" style="stroke-miterlimit: 2; opacity: 1;"><g class="fills"/><g class="errorbars"/><g class="lines"><path class="js-line" d="M0,290.05L6.88,146.2L13.76,201.79L20.64,222.39L27.52,221.56L34.4,251.34L41.28,257.56L48.15,209.22L55.03,291.69L68.79,144.94L75.67,213.14L82.55,271.57L89.43,232.52L96.31,157.64L103.19,294.69L110.07,220.25L116.95,246.67L123.83,232.2L130.7,166.79L137.58,235.63L144.46,271.5L151.34,247.81L158.22,185.32L165.1,260.93L171.98,249.1L178.86,146.6L185.74,122.31L192.62,101.95L199.5,218.13L206.38,242.85L213.26,177.87L220.13,222.56L227.01,137.54L233.89,123.44L240.77,220.82L247.65,167.39L254.53,227.7L261.41,127.7L268.29,122.96L275.17,206.15L282.05,177.58L288.93,244.52L295.81,184.01L302.68,260.96L309.56,254.05L316.44,197.38L323.32,209.18L330.2,154.45L337.08,111.99L343.96,195.41L350.84,173.21L357.72,237.75L364.6,154.17L371.48,239.89L378.36,112.54L385.23,117.09L392.11,93.31L398.99,112.95L405.87,234.89L412.75,257.59L419.63,188.96L426.51,260.44L433.39,273.33L440.27,301.83L447.15,284.33L454.03,174.97L460.91,202.78L467.79,202.66L474.66,151.67L481.54,239.11L488.42,263.22L495.3,264.22L502.18,268.78L509.06,169.05L515.94,107.16L522.82,148.32L529.7,214.41L536.58,215.4L543.46,291.77L550.34,298.12L557.21,281.29L564.09,289.86L570.97,288.54L577.85,234.81L584.73,290.71L591.61,319.81L598.49,295.01L605.37,297.59L612.25,304.31L619.13,285.09L626.01,323.36L632.89,286.69L639.77,282.77L653.52,80.59L660.4,78.93L667.28,57.24L674.16,59.68L681.04,80.76L687.92,65.18L694.8,70.17L701.68,56.36L708.56,73.17L715.44,55.15L722.32,48.97L729.19,40.52L736.07,40.21L742.95,50.87L749.83,48.38L756.71,35.98L763.59,48.26L770.47,48.05L777.35,47.98L784.23,39.8L791.11,15.3L797.99,40.86L811.74,35.48L818.62,51.98L825.5,44.37L832.38,52.09L839.26,46.17L846.14,57.76L853.02,41.45L859.9,55.45L866.78,61.79L873.66,54.79L880.54,58.35L887.42,59.12L894.3,56.71L901.17,60.42L908.05,59.5L914.93,48.5L921.81,41.75L928.69,36.34L935.57,35.53L942.45,26.04L949.33,27.95L956.21,28.34L963.09,23.91L969.97,20.8L976.85,18.33L983.72,6.32L990.6,3.47L997.48,3.06L1025,1.67" style="vector-effect: none; fill: none; stroke: rgb(241, 92, 128); stroke-opacity: 1; stroke-width: 2px; opacity: 1;"/></g><g class="points"/><g class="text"/></g><g class="trace scatter trace77f0bd" style="stroke-miterlimit: 2; opacity: 1;"><g class="fills"/><g class="errorbars"/><g class="lines"><path class="js-line" d="M0,298.24L6.88,145.54L13.76,207.56L20.64,221.23L27.52,213.59L34.4,259.97L41.28,259.2L48.15,209.69L55.03,303.86L61.91,227.47L68.79,137.13L75.67,203.88L82.55,287.81L96.31,167.96L103.19,282.95L110.07,224.26L116.95,255.73L123.83,221.14L130.7,160.56L137.58,245.99L144.46,270.63L151.34,244.96L158.22,173.73L165.1,250.31L171.98,261.58L178.86,136.88L185.74,127.09L192.62,107.09L199.5,222.98L206.38,256.74L213.26,163.74L220.13,225.34L227.01,129.16L233.89,117.82L240.77,219.82L247.65,166.72L254.53,232.83L261.41,129.44L268.29,115.15L275.17,207.59L282.05,173.34L288.93,250.16L295.81,183.87L302.68,261.43L309.56,263.36L316.44,188.14L323.32,214.37L330.2,153.83L337.08,105.49L343.96,208.72L350.84,166.98L357.72,246.89L364.6,151.64L371.48,250.72L378.36,129.96L385.23,231.75L392.11,136.77L398.99,106.64L405.87,126.82L412.75,242.69L419.63,276.83L426.51,304.96L433.39,167.66L440.27,259.93L447.15,260.31L454.03,182.12L460.91,229.15L467.79,255.7L474.66,171.71L481.54,253.71L488.42,266.64L495.3,268.66L502.18,254.49L509.06,160.14L515.94,98.53L522.82,136.96L529.7,219.12L536.58,211.17L543.46,296.72L550.34,306.69L557.21,274.42L564.09,296.11L570.97,286.21L577.85,233.01L584.73,291.07L591.61,323.61L598.49,297.7L605.37,296.29L612.25,310.96L619.13,287.65L626.01,320.54L632.89,285.52L639.77,279.76L653.52,75.48L660.4,77L667.28,47.32L674.16,40.77L681.04,62.75L687.92,51.52L694.8,69.15L701.68,43.24L708.56,52.47L715.44,39.02L722.32,56.53L729.19,35.16L736.07,43.31L742.95,35.53L749.83,47.1L756.71,51.76L763.59,47.95L770.47,29.31L777.35,46.9L784.23,41.33L791.11,15.34L797.99,40.32L804.87,44.42L811.74,31.5L818.62,50.81L825.5,41.01L832.38,49.54L839.26,42.52L846.14,54.52L853.02,37.3L859.9,51.88L866.78,59.17L873.66,51.1L880.54,56.84L887.42,57.83L894.3,53.52L901.17,58.68L908.05,57.82L914.93,45.37L921.81,41.54L928.69,36.58L935.57,35.27L942.45,24.82L949.33,27.76L956.21,28.36L963.09,24.85L976.85,19.93L983.72,6.93L990.6,3.31L997.48,2.74L1025,1.5" style="vector-effect: none; fill: none; stroke: rgb(228, 211, 84); stroke-opacity: 1; stroke-width: 2px; opacity: 1;"/></g><g class="points"/><g class="text"/></g><g class="trace scatter trace951222" style="stroke-miterlimit: 2; opacity: 1;"><g class="fills"/><g class="errorbars"/><g class="lines"><path class="js-line" d="M0,280.44L6.88,149.24L13.76,206.48L20.64,217.32L27.52,205.15L34.4,274.63L41.28,236.93L48.15,202.58L55.03,311.1L61.91,207.43L68.79,156.9L75.67,219.38L82.55,273.31L89.43,251.69L96.31,179.84L103.19,276.78L110.07,211.84L116.95,268.87L123.83,231.75L130.7,180.66L137.58,257.92L144.46,259.29L151.34,217.96L158.22,183.11L165.1,239.38L171.98,248.96L178.86,142.7L185.74,163.58L192.62,119.93L199.5,213.24L206.38,230.03L213.26,176.99L220.13,225.32L227.01,149.33L233.89,136.47L240.77,221.4L247.65,191.31L254.53,236.67L261.41,143.34L268.29,137.95L275.17,207.76L282.05,200.55L288.93,247.26L295.81,204.39L302.68,265L309.56,259.5L316.44,207.79L323.32,211.31L330.2,176.88L337.08,118.74L343.96,202.21L350.84,177.62L357.72,250.71L364.6,173.21L371.48,248.88L378.36,129.31L385.23,141.53L392.11,143.04L398.99,221.44L405.87,266.89L412.75,183.37L419.63,147.77L426.51,245.36L433.39,255.37L440.27,307.43L447.15,275.43L454.03,197.2L460.91,205.84L467.79,253.56L474.66,203.19L481.54,261.59L488.42,267.74L495.3,236.48L502.18,214.87L509.06,137.23L515.94,107.66L522.82,136.06L529.7,205.67L536.58,187.33L543.46,237.68L550.34,238.91L557.21,215.26L564.09,225.77L570.97,233.38L577.85,194.12L584.73,237.55L591.61,287.08L598.49,260.45L605.37,252.26L612.25,278.94L619.13,268.57L626.01,296.81L632.89,251.03L639.77,264.77L646.64,168.31L653.52,79.03L660.4,87.71L667.28,65.3L674.16,83.47L681.04,101.29L687.92,59.45L694.8,78.61L701.68,66.95L708.56,102.49L715.44,85.24L722.32,75.88L729.19,55.88L736.07,93.53L742.95,97.48L749.83,67.83L756.71,78.16L763.59,103.24L770.47,87.63L777.35,80.41L784.23,69.02L791.11,33.49L797.99,78.31L804.87,82.74L811.74,56.64L818.62,84.21L825.5,77.68L839.26,64.11L846.14,67.94L853.02,51.37L859.9,83.12L866.78,99.89L873.66,67.54L880.54,97.72L887.42,101.12L894.3,78.15L901.17,104.92L908.05,100.63L914.93,73.61L921.81,75.62L928.69,69.85L942.45,56.09L949.33,59.55L956.21,54.3L963.09,42.1L969.97,35.93L976.85,33.36L983.72,11.71L990.6,7.29L1004.36,5.83L1011.24,3.82L1025,2.38" style="vector-effect: none; fill: none; stroke: rgb(43, 144, 143); stroke-opacity: 1; stroke-width: 2px; opacity: 1;"/></g><g class="points"/><g class="text"/></g><g class="trace scatter trace1b10de" style="stroke-miterlimit: 2; opacity: 1;"><g class="fills"/><g class="errorbars"/><g class="lines"><path class="js-line" d="M0,273.04L6.88,165.28L13.76,231.14L20.64,216.63L27.52,222.09L34.4,278.29L41.28,215.18L48.15,232.55L55.03,304.56L61.91,204.37L68.79,173.9L75.67,224.01L82.55,297.24L89.43,273.7L96.31,196.27L103.19,258.12L110.07,245.46L116.95,285.39L123.83,214.16L130.7,213.96L137.58,255.65L144.46,259.71L151.34,201.42L158.22,181.31L165.1,219.9L171.98,215.68L178.86,155.26L185.74,195.38L192.62,189.92L199.5,212L206.38,222.33L213.26,174.05L220.13,189.14L227.01,165.91L233.89,146.74L240.77,240.69L247.65,202.27L254.53,224.46L261.41,167.36L268.29,156.4L275.17,212.7L282.05,215.72L288.93,235.86L295.81,227.8L302.68,247.12L309.56,238.75L316.44,205.91L323.32,199.26L330.2,205.42L337.08,149.82L343.96,217.57L350.84,199.45L357.72,245.16L364.6,187.7L371.48,243.36L378.36,140.33L385.23,222.59L392.11,195.03L398.99,207.49L405.87,196.59L412.75,215.68L419.63,165.51L426.51,213.66L433.39,200.4L440.27,275.44L454.03,184.76L460.91,188.72L474.66,223.11L481.54,267.26L488.42,240.32L495.3,218.2L502.18,179.28L509.06,161.81L515.94,153.37L522.82,157.35L529.7,230.06L536.58,191.51L543.46,232.23L550.34,245.58L557.21,204.1L564.09,235.85L570.97,218.52L577.85,225.59L584.73,250.99L591.61,262.15L598.49,255.35L605.37,228.89L612.25,264.2L619.13,249.03L626.01,254.98L632.89,238.69L639.77,209.02L646.64,162.86L653.52,106.94L660.4,141.93L667.28,108.13L674.16,120.31L681.04,124.54L687.92,107.29L694.8,95.51L701.68,78.48L708.56,129.69L715.44,104.49L722.32,121.35L729.19,77.33L736.07,117.02L742.95,82.55L749.83,106.88L756.71,110.55L763.59,89.36L770.47,114.19L777.35,89.65L784.23,79.75L791.11,49.63L797.99,87.77L804.87,101.31L811.74,69.85L818.62,113.82L825.5,96.52L832.38,89.89L839.26,101.56L846.14,92.92L853.02,82.14L859.9,117.25L866.78,122.29L873.66,104.55L880.54,122.8L887.42,124.08L894.3,113.42L901.17,132.17L908.05,126.59L914.93,100.34L921.81,89.08L928.69,83.14L935.57,76.16L942.45,64.33L949.33,65.51L963.09,41.02L969.97,34.38L976.85,29.72L983.72,11.91L990.6,8.47L997.48,7.57L1004.36,7.29L1011.24,5.85L1018.12,4.39L1025,3.91" style="vector-effect: none; fill: none; stroke: rgb(244, 91, 91); stroke-opacity: 1; stroke-width: 2px; opacity: 1;"/></g><g class="points"/><g class="text"/></g><g class="trace scatter trace671d6d" style="stroke-miterlimit: 2; opacity: 1;"><g class="fills"/><g class="errorbars"/><g class="lines"><path class="js-line" d="M0,268.2L6.88,174.24L13.76,227.85L20.64,217.46L27.52,239.55L34.4,281.39L41.28,205.3L48.15,238.55L55.03,307.71L61.91,198.21L68.79,178.29L75.67,230.41L82.55,292.61L89.43,275.31L96.31,212.58L103.19,253.02L110.07,261.08L116.95,290.37L123.83,208.92L130.7,223.18L137.58,245.18L144.46,246.39L151.34,194.05L158.22,179.44L165.1,215.57L171.98,203.22L178.86,163.18L185.74,200.04L192.62,201.81L199.5,218.77L206.38,220.34L213.26,182.66L220.13,184.41L227.01,182.61L233.89,152.83L240.77,246.27L247.65,204.06L254.53,229.69L261.41,178.57L268.29,173.2L275.17,225.53L282.05,221.4L288.93,232.78L295.81,235.51L302.68,249.33L309.56,250.1L316.44,211.59L323.32,205.9L330.2,218.55L337.08,165.56L343.96,220.54L350.84,203.01L357.72,245.17L364.6,196.43L371.48,235.52L378.36,145.69L385.23,171.12L392.11,236.77L398.99,171.14L405.87,242L412.75,195.51L419.63,214.65L426.51,215.4L433.39,202.23L440.27,259.27L447.15,237.31L454.03,173.75L460.91,191.86L467.79,192.16L474.66,205.78L481.54,245.02L488.42,225.44L495.3,224.45L502.18,189.63L509.06,168.6L515.94,168.93L522.82,160.55L529.7,213.98L536.58,188.2L543.46,226.52L550.34,246.24L557.21,222.45L564.09,249.36L570.97,219.28L577.85,234.96L584.73,245.25L591.61,248.15L598.49,250.14L605.37,214.94L612.25,248.18L619.13,244.14L626.01,244.58L632.89,233.13L639.77,202.85L646.64,179.44L653.52,98.91L660.4,130.36L667.28,139.73L674.16,113.13L681.04,155.08L687.92,105.57L694.8,133.43L701.68,94.12L708.56,148.08L715.44,137.69L722.32,119.13L729.19,120.91L736.07,123.46L742.95,112.19L749.83,96.32L756.71,132.02L763.59,88.83L770.47,122.7L784.23,92.44L791.11,51.92L804.87,122.72L811.74,111.31L818.62,144.89L825.5,133.8L832.38,142.02L839.26,148.44L846.14,160.81L853.02,134.99L859.9,165.14L866.78,171.21L873.66,163.03L880.54,165.67L887.42,166.29L894.3,163.58L901.17,168.56L908.05,167.12L914.93,145.27L921.81,118.69L928.69,103.01L935.57,99.19L942.45,84.47L949.33,79.39L956.21,69.59L963.09,52.27L969.97,40.78L976.85,33.72L983.72,19.66L990.6,15.08L1004.36,13.49L1011.24,11.07L1018.12,8.17L1025,6.5" style="vector-effect: none; fill: none; stroke: rgb(145, 232, 225); stroke-opacity: 1; stroke-width: 2px; opacity: 1;"/></g><g class="points"/><g class="text"/></g><g class="trace scatter tracefc97b5" style="stroke-miterlimit: 2; opacity: 1;"><g class="fills"/><g class="errorbars"/><g class="lines"><path class="js-line" d="M0,275.54L6.88,171.11L13.76,228.99L20.64,209.33L27.52,216.5L34.4,279.81L41.28,221.73L48.15,227.35L55.03,309.1L61.91,214.81L68.79,170.98L75.67,230.93L82.55,297.64L89.43,273.73L96.31,187.56L103.19,266.7L110.07,245.54L116.95,287.04L123.83,217.18L130.7,207.27L137.58,258.09L144.46,266.31L151.34,208.24L158.22,180.12L165.1,226.16L171.98,223.28L178.86,148.58L185.74,196.42L192.62,176.05L199.5,217.79L206.38,227.91L213.26,172.67L220.13,197.18L227.01,163.37L233.89,143.48L240.77,238.57L247.65,200.9L254.53,225.24L261.41,158.7L268.29,156.85L275.17,213.83L282.05,212.09L288.93,241.24L295.81,218.28L302.68,253.57L309.56,239.02L316.44,202.93L323.32,201.97L330.2,197.52L337.08,144.9L343.96,219.37L350.84,196.13L357.72,243.08L364.6,181.83L371.48,235.43L378.36,138.89L385.23,181.42L392.11,241.71L398.99,230.59L405.87,195.94L412.75,221.04L419.63,159.47L426.51,190.31L433.39,218.87L440.27,279.55L454.03,183.51L460.91,189.75L467.79,203.17L474.66,207.7L481.54,263.2L488.42,249.24L495.3,220.65L502.18,195.32L509.06,167.8L515.94,145.78L522.82,160.9L529.7,224.2L536.58,197.34L543.46,245.62L550.34,253.94L557.21,221.78L564.09,242.38L570.97,232.82L577.85,224.43L584.73,254.93L591.61,273.9L598.49,252.29L605.37,238.31L612.25,272.81L619.13,248.09L626.01,268.81L632.89,237.15L639.77,219.89L646.64,160.02L653.52,93.2L660.4,124.38L667.28,130.86L674.16,115.81L681.04,126.82L687.92,100.78L694.8,85.69L701.68,79.37L708.56,131.17L715.44,103.92L722.32,92.16L736.07,107.84L742.95,72.81L749.83,105.23L756.71,98.68L763.59,82.87L770.47,106.3L777.35,91.4L784.23,78.93L791.11,45.63L797.99,87.45L804.87,95.15L811.74,76.49L818.62,112.75L825.5,96.33L839.26,99.8L846.14,105.07L853.02,87.52L859.9,116.98L866.78,125.1L873.66,106.4L880.54,121.93L887.42,123.62L894.3,114.21L901.17,129.47L908.05,124.87L914.93,96.93L921.81,87.81L928.69,83.13L935.57,79.64L942.45,64.26L949.33,68.27L956.21,58.27L963.09,45.33L969.97,38.64L976.85,34.2L983.72,16.02L990.6,12.19L997.48,11.53L1004.36,10.64L1011.24,8.28L1018.12,6.29L1025,5.17" style="vector-effect: none; fill: none; stroke: rgb(124, 181, 236); stroke-opacity: 1; stroke-width: 2px; opacity: 1;"/></g><g class="points"/><g class="text"/></g><g class="trace scatter tracea5973a" style="stroke-miterlimit: 2; opacity: 1;"><g class="fills"/><g class="errorbars"/><g class="lines"><path class="js-line" d="M0,253.67L6.88,182.6L13.76,219.58L20.64,199.19L27.52,226.52L34.4,279.78L41.28,193.5L48.15,240.08L55.03,312.48L61.91,194.91L68.79,192.73L75.67,247.38L82.55,284.85L89.43,287.13L96.31,224.3L103.19,243.48L110.07,244.91L116.95,288.37L123.83,218.28L130.7,233.23L137.58,241.35L144.46,246.12L151.34,192.61L158.22,200.75L165.1,221.67L171.98,198.39L178.86,168.9L185.74,214.15L192.62,195.7L199.5,216.71L206.38,216.58L213.26,190.58L220.13,198.36L227.01,213.08L233.89,169.78L240.77,243.45L247.65,216.73L254.53,218.33L261.41,181.91L275.17,227.46L282.05,229.7L288.93,243.59L295.81,235.37L302.68,262.11L309.56,258.71L316.44,218.39L323.32,223.43L330.2,221.7L337.08,171.13L343.96,232.97L350.84,199.67L357.72,254.19L364.6,214.8L371.48,251.02L378.36,168.48L385.23,216.2L392.11,210.23L398.99,214.4L405.87,216.31L412.75,213.22L419.63,219.31L426.51,249.15L433.39,180.18L440.27,251.46L447.15,221.07L454.03,185.51L460.91,193.11L474.66,194.64L481.54,235.57L488.42,224.15L495.3,203.35L502.18,186.68L509.06,181.51L515.94,173.95L522.82,170.82L529.7,198.3L536.58,184.36L543.46,212.39L550.34,216.02L557.21,220.86L564.09,228.34L570.97,212.53L577.85,226.7L584.73,220.6L591.61,240.13L598.49,223.83L605.37,201.44L612.25,237.3L619.13,224.3L626.01,240.61L632.89,213.8L639.77,212.02L646.64,183.43L653.52,137.17L660.4,170.84L667.28,141.13L674.16,151.54L681.04,141.54L687.92,126.71L694.8,174.8L701.68,133.06L708.56,145.46L715.44,149.44L722.32,142.46L729.19,116L736.07,166.98L742.95,112.32L749.83,108.38L756.71,146.04L763.59,136.81L770.47,121.91L777.35,133.16L784.23,115.25L791.11,71.93L797.99,121.88L804.87,142.16L811.74,136.98L818.62,168.01L825.5,154.67L832.38,162.58L839.26,174.27L846.14,186.98L853.02,158.87L859.9,194.28L866.78,200.21L873.66,191.16L880.54,202.59L887.42,201.11L894.3,198.14L901.17,205L908.05,203.17L921.81,155.05L928.69,136.79L935.57,133.98L942.45,118.93L949.33,112.6L956.21,102.84L963.09,80.94L969.97,66.48L976.85,59.57L983.72,42.77L990.6,33.83L997.48,30.73L1004.36,26.37L1011.24,19.42L1018.12,15L1025,11.55" style="vector-effect: none; fill: none; stroke: rgb(67, 67, 72); stroke-opacity: 1; stroke-width: 2px; opacity: 1;"/></g><g class="points"/><g class="text"/></g><g class="trace scatter traceced6e8" style="stroke-miterlimit: 2; opacity: 1;"><g class="fills"/><g class="errorbars"/><g class="lines"><path class="js-line" d="M0,264.52L6.88,166.94L13.76,212.96L20.64,219.24L27.52,231.39L34.4,263.55L41.28,212.92L48.15,233.61L55.03,285.56L61.91,209.5L68.79,168.57L75.67,217.35L82.55,284.17L89.43,252.45L96.31,186.74L103.19,260.73L110.07,234.94L116.95,276.78L123.83,205.62L130.7,195.31L137.58,239.15L144.46,256.16L151.34,218L158.22,185.91L165.1,227.69L171.98,217.55L178.86,149.79L185.74,168.44L192.62,162.5L199.5,217.28L206.38,225.2L213.26,181.86L220.13,192.7L227.01,169.99L233.89,144.3L240.77,233.13L247.65,196.98L254.53,221.89L261.41,160.07L268.29,156.18L275.17,215.41L282.05,208.83L288.93,231.56L295.81,216.11L302.68,245.13L309.56,248.12L316.44,210.84L323.32,201.63L330.2,193.98L337.08,142.13L343.96,206.09L350.84,191.72L357.72,238.09L364.6,186.63L371.48,246.05L378.36,144.08L385.23,208.44L392.11,165.94L398.99,148.8L405.87,181.6L412.75,243.62L419.63,247.27L426.51,268.38L433.39,173.19L440.27,245.28L447.15,244L454.03,188.02L467.79,232.11L474.66,205.11L481.54,262.54L488.42,254.07L495.3,237.94L502.18,207.81L509.06,153.01L515.94,144.72L522.82,157.42L529.7,217.51L536.58,195.54L543.46,239.83L550.34,255.07L557.21,227.25L564.09,255.43L570.97,240.29L577.85,221.94L584.73,260.88L591.61,271.3L598.49,261.69L605.37,251.47L612.25,266.27L619.13,262.09L626.01,276.01L632.89,248.73L639.77,236.05L646.64,182.24L653.52,105.8L660.4,129.76L667.28,91.04L674.16,83.67L681.04,107.88L687.92,113.67L694.8,133.01L701.68,103.27L708.56,93.02L715.44,96.23L722.32,110.44L729.19,83.78L736.07,108.06L742.95,92.04L749.83,89.38L756.71,111.47L763.59,96.92L770.47,79.81L777.35,85.82L784.23,73.51L791.11,43.23L797.99,73.91L804.87,94.83L811.74,68.05L818.62,99.16L825.5,89.42L832.38,85.43L839.26,94.38L846.14,97.44L853.02,74.23L859.9,106.37L866.78,113.49L873.66,97.78L880.54,110.46L887.42,112.03L894.3,104.86L901.17,116.76L908.05,116.36L914.93,95.81L921.81,81.01L928.69,68.43L935.57,64.35L942.45,51.11L949.33,52.99L956.21,47.48L963.09,36.54L969.97,29.81L976.85,26.03L983.72,13.93L990.6,8.75L997.48,8.11L1004.36,7.63L1011.24,6.17L1025,3.43" style="vector-effect: none; fill: none; stroke: rgb(144, 237, 125); stroke-opacity: 1; stroke-width: 2px; opacity: 1;"/></g><g class="points"/><g class="text"/></g><g class="trace scatter trace43876b" style="stroke-miterlimit: 2; opacity: 1;"><g class="fills"/><g class="errorbars"/><g class="lines"><path class="js-line" d="M0,274.91L6.88,152.17L13.76,229.35L20.64,214.88L27.52,226.82L34.4,257.39L41.28,223.32L48.15,236.5L55.03,271.36L61.91,221.69L68.79,164.31L75.67,217.28L82.55,289.39L96.31,179.61L103.19,261.11L110.07,239.99L116.95,260.08L123.83,200.07L130.7,177.58L137.58,239.27L144.46,263.49L151.34,230L158.22,185.88L165.1,227.55L171.98,223.24L178.86,148.44L185.74,154.86L192.62,155.77L199.5,217.57L206.38,237.72L213.26,173.8L220.13,194.14L227.01,153.79L233.89,131.58L240.77,227.05L247.65,179.94L254.53,213.2L261.41,152.12L268.29,140.59L275.17,213.5L282.05,191.32L288.93,231.03L295.81,204.29L302.68,239.9L309.56,243.9L316.44,188.11L323.32,197.48L330.2,173.77L337.08,131.41L343.96,213.04L350.84,179.68L357.72,229.28L364.6,167.93L371.48,213.5L378.36,123.61L385.23,147.77L392.11,167.87L398.99,244.2L405.87,278.98L412.75,263.25L419.63,228.96L426.51,167.79L433.39,134.34L440.27,236.66L447.15,242.53L454.03,161.41L460.91,182.36L467.79,132.45L474.66,122.8L481.54,148.6L488.42,157.18L495.3,211.25L502.18,222.26L509.06,162.47L515.94,145.56L522.82,150.28L529.7,200.49L536.58,219L543.46,275.18L550.34,289.37L557.21,291.29L570.97,276.9L577.85,254.4L584.73,279.88L591.61,295.94L598.49,282.34L605.37,272.44L612.25,284.12L619.13,255.03L626.01,273.54L632.89,255.9L639.77,228.86L646.64,171.67L653.52,85.13L660.4,82.49L667.28,79.1L674.16,91.72L681.04,99.54L687.92,80.85L694.8,79.71L701.68,46.71L708.56,63.24L715.44,71.27L722.32,63.95L729.19,52.6L736.07,67.18L742.95,44.9L749.83,42.65L756.71,44.44L763.59,28.8L770.47,32.13L777.35,40.02L784.23,37.2L791.11,16.93L797.99,32.5L804.87,41.59L811.74,43.75L818.62,52.36L825.5,55.24L832.38,60.49L839.26,61.69L846.14,68.81L853.02,64.53L859.9,69.44L866.78,73.22L873.66,73.34L880.54,72.01L887.42,66.8L894.3,65.39L901.17,67.41L908.05,66.92L914.93,60.06L921.81,48.6L928.69,39.23L935.57,36.52L942.45,32.65L949.33,26.24L969.97,16.87L976.85,14.3L983.72,7.31L990.6,4.64L1011.24,3.25L1018.12,2.7L1025,2.33" style="vector-effect: none; fill: none; stroke: rgb(247, 163, 92); stroke-opacity: 1; stroke-width: 2px; opacity: 1;"/></g><g class="points"/><g class="text"/></g><g class="trace scatter tracedcff09" style="stroke-miterlimit: 2; opacity: 1;"><g class="fills"/><g class="errorbars"/><g class="lines"><path class="js-line" d="M0,271.58L6.88,174.96L13.76,204.15L27.52,237.08L34.4,269.49L41.28,229.92L48.15,234.06L55.03,298.91L61.91,228.18L68.79,152.34L75.67,208.67L82.55,294.75L89.43,248.07L96.31,190.05L103.19,262.55L110.07,238.92L116.95,285.12L123.83,199.92L130.7,191.21L137.58,245.4L144.46,257.67L151.34,221.93L158.22,178L165.1,217.13L171.98,223.36L178.86,138.16L185.74,170.17L192.62,158.85L199.5,223.51L206.38,242.72L213.26,171.23L220.13,195.24L227.01,164.67L233.89,135.29L240.77,234.6L247.65,191.32L254.53,226.2L261.41,161.23L268.29,149.12L275.17,215.73L282.05,198.18L288.93,241.76L295.81,214.22L302.68,246.8L309.56,260.79L316.44,205.35L323.32,206.05L330.2,193.41L337.08,131.77L343.96,216.92L350.84,181.51L357.72,244.28L364.6,179.39L371.48,256.57L378.36,133.87L385.23,207.01L392.11,171.44L398.99,140.23L405.87,235.37L412.75,182.51L419.63,228.92L426.51,205L433.39,226.17L440.27,266.86L447.15,262.37L454.03,159.61L460.91,185.87L467.79,197.65L474.66,179.29L481.54,251.53L488.42,247.92L495.3,244.77L502.18,217.04L509.06,151.47L515.94,135.29L522.82,153.23L529.7,218.25L536.58,200.13L543.46,250.12L550.34,274.22L557.21,241.72L564.09,260.67L570.97,255.48L577.85,232.64L584.73,271.24L591.61,283.11L598.49,268.18L605.37,255.14L612.25,272.32L619.13,264.78L626.01,283.32L632.89,248.86L639.77,238.44L653.52,96.92L660.4,116.1L667.28,74.89L674.16,81.45L681.04,108.73L687.92,81.49L694.8,98.05L701.68,76.01L708.56,103.59L715.44,99.75L722.32,103.9L729.19,70.14L736.07,85.01L742.95,79.69L749.83,62.52L756.71,92.11L763.59,67.58L770.47,86.4L777.35,78.86L784.23,62.21L791.11,30.63L797.99,66.04L804.87,82.22L811.74,73.73L818.62,97.94L825.5,93.95L832.38,92.31L839.26,95.07L846.14,104.34L853.02,79.33L859.9,107.21L866.78,116.19L873.66,101.57L880.54,107.62L887.42,112.25L894.3,109.03L901.17,116.18L908.05,114.69L921.81,72.66L928.69,60.01L935.57,55.9L942.45,42.27L949.33,44.83L956.21,40.91L963.09,32.17L969.97,26.7L976.85,23.85L983.72,11.21L990.6,7.55L997.48,6.94L1004.36,6.32L1011.24,4.77L1025,2.78" style="vector-effect: none; fill: none; stroke: rgb(128, 133, 233); stroke-opacity: 1; stroke-width: 2px; opacity: 1;"/></g><g class="points"/><g class="text"/></g><g class="trace scatter trace71a4bf" style="stroke-miterlimit: 2; opacity: 1;"><g class="fills"/><g class="errorbars"/><g class="lines"><path class="js-line" d="M0,270.38L6.88,174.24L13.76,220.1L20.64,208.18L27.52,229.32L34.4,278.12L41.28,220.49L48.15,231.32L55.03,304.96L61.91,220.61L68.79,162.87L82.55,293.84L89.43,264.35L96.31,195.55L103.19,265.25L110.07,248.73L116.95,290.99L123.83,206.7L130.7,201.63L137.58,248.73L144.46,262.53L151.34,211.43L158.22,180.42L165.1,221.37L171.98,219.14L178.86,146.65L185.74,186.95L192.62,168.82L199.5,223.23L206.38,234.94L213.26,175.42L220.13,195.67L227.01,173.39L233.89,141.97L240.77,239.98L247.65,200.37L254.53,227.78L261.41,162.62L268.29,161.63L275.17,218.21L282.05,210.48L288.93,240.06L295.81,218.41L302.68,252.22L309.56,256.27L316.44,209.08L323.32,210.68L330.2,199.51L337.08,142.38L343.96,220.99L350.84,189.68L357.72,246.67L364.6,191.16L371.48,255.14L378.36,141.38L385.23,215.02L392.11,185.17L398.99,171.24L405.87,254.97L412.75,261.91L419.63,229.56L426.51,197.91L433.39,143.38L440.27,243.27L447.15,252.91L454.03,188.14L460.91,205.55L467.79,222.02L474.66,191.7L481.54,249.76L488.42,238.2L495.3,224.48L502.18,194.44L509.06,165.53L515.94,148.09L522.82,160.27L529.7,217.59L536.58,194.56L543.46,237.24L550.34,255.13L557.21,231.13L564.09,246.13L570.97,240.81L577.85,226.76L584.73,255.95L591.61,270.24L598.49,254.52L605.37,239.89L612.25,264.84L619.13,254.99L626.01,271.72L632.89,238.99L639.77,229.94L646.64,162.48L653.52,106.57L660.4,135.74L667.28,92.69L674.16,102.17L681.04,145.78L687.92,125.84L694.8,125.05L701.68,75.11L708.56,90.82L715.44,107.55L722.32,128.47L729.19,96.14L736.07,111.97L742.95,103.12L749.83,92.89L756.71,113.61L763.59,85.8L770.47,87L777.35,100.11L784.23,84.98L791.11,44L797.99,82.05L804.87,108.59L811.74,88.28L818.62,115.23L825.5,108.84L832.38,108.47L839.26,110.72L846.14,121.41L853.02,97.21L859.9,127.92L866.78,137.35L873.66,120.61L880.54,130.93L887.42,133.17L894.3,127.76L901.17,138.57L908.05,135.73L914.93,109.22L921.81,89.21L928.69,79.22L935.57,76.18L942.45,60.57L949.33,62.72L956.21,55.03L963.09,41.48L969.97,33.82L976.85,30.21L983.72,15.47L990.6,11.56L997.48,10.69L1004.36,9.52L1011.24,6.8L1025,4.01" style="vector-effect: none; fill: none; stroke: rgb(241, 92, 128); stroke-opacity: 1; stroke-width: 2px; opacity: 1;"/></g><g class="points"/><g class="text"/></g></g></g></g><g class="zerolinelayer-above"/><path class="xlines-above crisp" d="M0,0" style="fill: none;"/><path class="ylines-above crisp" d="M0,0" style="fill: none;"/><g class="overlines-above"/><g class="xaxislayer-above"><g class="xtick"><text text-anchor="middle" x="0" y="451" transform="translate(190.7,0)" style="font-family: system-ui, -apple-system, 'Segoe UI', Roboto, 'Helvetica Neue', 'Noto Sans', 'Liberation Sans', Arial, sans-serif, 'Apple Color Emoji', 'Segoe UI Emoji', 'Segoe UI Symbol', 'Noto Color Emoji'; font-size: 10px; fill: rgb(80, 80, 80); fill-opacity: 1; white-space: pre;">20</text></g><g class="xtick"><text text-anchor="middle" x="0" y="451" style="font-family: system-ui, -apple-system, 'Segoe UI', Roboto, 'Helvetica Neue', 'Noto Sans', 'Liberation Sans', Arial, sans-serif, 'Apple Color Emoji', 'Segoe UI Emoji', 'Segoe UI Symbol', 'Noto Color Emoji'; font-size: 10px; fill: rgb(80, 80, 80); fill-opacity: 1; white-space: pre;" transform="translate(328.29,0)">40</text></g><g class="xtick"><text text-anchor="middle" x="0" y="451" style="font-family: system-ui, -apple-system, 'Segoe UI', Roboto, 'Helvetica Neue', 'Noto Sans', 'Liberation Sans', Arial, sans-serif, 'Apple Color Emoji', 'Segoe UI Emoji', 'Segoe UI Symbol', 'Noto Color Emoji'; font-size: 10px; fill: rgb(80, 80, 80); fill-opacity: 1; white-space: pre;" transform="translate(465.87,0)">60</text></g><g class="xtick"><text text-anchor="middle" x="0" y="451" style="font-family: system-ui, -apple-system, 'Segoe UI', Roboto, 'Helvetica Neue', 'Noto Sans', 'Liberation Sans', Arial, sans-serif, 'Apple Color Emoji', 'Segoe UI Emoji', 'Segoe UI Symbol', 'Noto Color Emoji'; font-size: 10px; fill: rgb(80, 80, 80); fill-opacity: 1; white-space: pre;" transform="translate(603.46,0)">80</text></g><g class="xtick"><text text-anchor="middle" x="0" y="451" style="font-family: system-ui, -apple-system, 'Segoe UI', Roboto, 'Helvetica Neue', 'Noto Sans', 'Liberation Sans', Arial, sans-serif, 'Apple Color Emoji', 'Segoe UI Emoji', 'Segoe UI Symbol', 'Noto Color Emoji'; font-size: 10px; fill: rgb(80, 80, 80); fill-opacity: 1; white-space: pre;" transform="translate(741.04,0)">100</text></g><g class="xtick"><text text-anchor="middle" x="0" y="451" style="font-family: system-ui, -apple-system, 'Segoe UI', Roboto, 'Helvetica Neue', 'Noto Sans', 'Liberation Sans', Arial, sans-serif, 'Apple Color Emoji', 'Segoe UI Emoji', 'Segoe UI Symbol', 'Noto Color Emoji'; font-size: 10px; fill: rgb(80, 80, 80); fill-opacity: 1; white-space: pre;" transform="translate(878.62,0)">120</text></g><g class="xtick"><text text-anchor="middle" x="0" y="451" style="font-family: system-ui, -apple-system, 'Segoe UI', Roboto, 'Helvetica Neue', 'Noto Sans', 'Liberation Sans', Arial, sans-serif, 'Apple Color Emoji', 'Segoe UI Emoji', 'Segoe UI Symbol', 'Noto Color Emoji'; font-size: 10px; fill: rgb(80, 80, 80); fill-opacity: 1; white-space: pre;" transform="translate(1016.21,0)">140</text></g></g><g class="yaxislayer-above"><g class="ytick"><text text-anchor="end" x="54" y="3.5" transform="translate(0,435)" style="font-family: system-ui, -apple-system, 'Segoe UI', Roboto, 'Helvetica Neue', 'Noto Sans', 'Liberation Sans', Arial, sans-serif, 'Apple Color Emoji', 'Segoe UI Emoji', 'Segoe UI Symbol', 'Noto Color Emoji'; font-size: 10px; fill: rgb(80, 80, 80); fill-opacity: 1; white-space: pre;">0%</text></g><g class="ytick"><text text-anchor="end" x="54" y="3.5" style="font-family: system-ui, -apple-system, 'Segoe UI', Roboto, 'Helvetica Neue', 'Noto Sans', 'Liberation Sans', Arial, sans-serif, 'Apple Color Emoji', 'Segoe UI Emoji', 'Segoe UI Symbol', 'Noto Color Emoji'; font-size: 10px; fill: rgb(80, 80, 80); fill-opacity: 1; white-space: pre;" transform="translate(0,358)">20%</text></g><g class="ytick"><text text-anchor="end" x="54" y="3.5" style="font-family: system-ui, -apple-system, 'Segoe UI', Roboto, 'Helvetica Neue', 'Noto Sans', 'Liberation Sans', Arial, sans-serif, 'Apple Color Emoji', 'Segoe UI Emoji', 'Segoe UI Symbol', 'Noto Color Emoji'; font-size: 10px; fill: rgb(80, 80, 80); fill-opacity: 1; white-space: pre;" transform="translate(0,281)">40%</text></g><g class="ytick"><text text-anchor="end" x="54" y="3.5" style="font-family: system-ui, -apple-system, 'Segoe UI', Roboto, 'Helvetica Neue', 'Noto Sans', 'Liberation Sans', Arial, sans-serif, 'Apple Color Emoji', 'Segoe UI Emoji', 'Segoe UI Symbol', 'Noto Color Emoji'; font-size: 10px; fill: rgb(80, 80, 80); fill-opacity: 1; white-space: pre;" transform="translate(0,204)">60%</text></g><g class="ytick"><text text-anchor="end" x="54" y="3.5" style="font-family: system-ui, -apple-system, 'Segoe UI', Roboto, 'Helvetica Neue', 'Noto Sans', 'Liberation Sans', Arial, sans-serif, 'Apple Color Emoji', 'Segoe UI Emoji', 'Segoe UI Symbol', 'Noto Color Emoji'; font-size: 10px; fill: rgb(80, 80, 80); fill-opacity: 1; white-space: pre;" transform="translate(0,127)">80%</text></g><g class="ytick"><text text-anchor="end" x="54" y="3.5" style="font-family: system-ui, -apple-system, 'Segoe UI', Roboto, 'Helvetica Neue', 'Noto Sans', 'Liberation Sans', Arial, sans-serif, 'Apple Color Emoji', 'Segoe UI Emoji', 'Segoe UI Symbol', 'Noto Color Emoji'; font-size: 10px; fill: rgb(80, 80, 80); fill-opacity: 1; white-space: pre;" transform="translate(0,50)">100%</text></g></g><g class="overaxes-above"/></g></g><g class="polarlayer"/><g class="smithlayer"/><g class="ternarylayer"/><g class="geolayer"/><g class="funnelarealayer"/><g class="pielayer"/><g class="iciclelayer"/><g class="treemaplayer"/><g class="sunburstlayer"/><g class="glimages"/><defs id="topdefs-7b2d5f"><g class="clips"/></defs><g class="layer-above"><g class="imagelayer"/><g class="shapelayer"/></g><g class="infolayer"><g class="g-gtitle"><text class="gtitle" x="550" y="25" text-anchor="middle" dy="0em" style="opacity: 1; font-family: system-ui, -apple-system, 'Segoe UI', Roboto, 'Helvetica Neue', 'Noto Sans', 'Liberation Sans', Arial, sans-serif, 'Apple Color Emoji', 'Segoe UI Emoji', 'Segoe UI Symbol', 'Noto Color Emoji'; font-size: 20px; fill: rgb(60, 60, 60); fill-opacity: 1; white-space: pre;"><tspan class="line" dy="0em" x="550" y="25">Fastp: Read GC Content</tspan><tspan class="line" dy="1.3em" x="550" y="25">​<tspan style="font-size:70%" dy="-0.6em">Read 1: Before filtering, 16 lines</tspan><tspan dy="0.42em">​</tspan></tspan></text></g><g class="g-xtitle"><text class="xtitle" x="572.5" y="487" text-anchor="middle" style="opacity: 1; font-family: system-ui, -apple-system, 'Segoe UI', Roboto, 'Helvetica Neue', 'Noto Sans', 'Liberation Sans', Arial, sans-serif, 'Apple Color Emoji', 'Segoe UI Emoji', 'Segoe UI Symbol', 'Noto Color Emoji'; font-size: 14px; fill: rgb(100, 100, 100); fill-opacity: 1; white-space: pre;">Read Position</text></g><g class="g-ytitle"><text class="ytitle" transform="rotate(-90,22,242.5)" x="22" y="242.5" text-anchor="middle" style="opacity: 1; font-family: system-ui, -apple-system, 'Segoe UI', Roboto, 'Helvetica Neue', 'Noto Sans', 'Liberation Sans', Arial, sans-serif, 'Apple Color Emoji', 'Segoe UI Emoji', 'Segoe UI Symbol', 'Noto Color Emoji'; font-size: 14px; fill: rgb(100, 100, 100); fill-opacity: 1; white-space: pre;">R1 Before filtering: Base Content Percent</text></g></g></svg>