<svg class="main-svg" xmlns="http://www.w3.org/2000/svg" xmlns:xlink="http://www.w3.org/1999/xlink" width="2200" height="1000" viewBox="0 0 1100 500" style=""><rect x="0" y="0" width="1100" height="500" style="fill: rgb(255, 255, 255); fill-opacity: 1;"/><defs id="defs-a25a5f"><g class="clips"><clipPath id="clipa25a5fxyplot" class="plotclip"><rect width="1025" height="385"/></clipPath><clipPath class="axesclip" id="clipa25a5fx"><rect x="60" y="0" width="1025" height="500"/></clipPath><clipPath class="axesclip" id="clipa25a5fy"><rect x="0" y="50" width="1100" height="385"/></clipPath><clipPath class="axesclip" id="clipa25a5fxy"><rect x="60" y="50" width="1025" height="385"/></clipPath></g><g class="gradients"/><g class="patterns"/></defs><g class="bglayer"/><g class="layer-below"><g class="imagelayer"/><g class="shapelayer"/></g><g class="cartesianlayer"><g class="subplot xy"><g class="layer-subplot"><g class="shapelayer"/><g class="imagelayer"/></g><g class="minor-gridlayer"><g class="x"/><g class="y"/></g><g class="gridlayer"><g class="x"><path class="xgrid crisp" transform="translate(190.7,0)" d="M0,50v385" style="stroke: rgb(128, 128, 128); stroke-opacity: 0.15; stroke-width: 1px;"/><path class="xgrid crisp" transform="translate(328.29,0)" d="M0,50v385" style="stroke: rgb(128, 128, 128); stroke-opacity: 0.15; stroke-width: 1px;"/><path class="xgrid crisp" transform="translate(465.87,0)" d="M0,50v385" style="stroke: rgb(128, 128, 128); stroke-opacity: 0.15; stroke-width: 1px;"/><path class="xgrid crisp" transform="translate(603.46,0)" d="M0,50v385" style="stroke: rgb(128, 128, 128); stroke-opacity: 0.15; stroke-width: 1px;"/><path class="xgrid crisp" transform="translate(741.04,0)" d="M0,50v385" style="stroke: rgb(128, 128, 128); stroke-opacity: 0.15; stroke-width: 1px;"/><path class="xgrid crisp" transform="translate(878.62,0)" d="M0,50v385" style="stroke: rgb(128, 128, 128); stroke-opacity: 0.15; stroke-width: 1px;"/><path class="xgrid crisp" transform="translate(1016.21,0)" d="M0,50v385" style="stroke: rgb(128, 128, 128); stroke-opacity: 0.15; stroke-width: 1px;"/></g><g class="y"><path class="ygrid crisp" transform="translate(0,388.88)" d="M60,0h1025" style="stroke: rgb(128, 128, 128); stroke-opacity: 0.15; stroke-width: 1px;"/><path class="ygrid crisp" transform="translate(0,342.76)" d="M60,0h1025" style="stroke: rgb(128, 128, 128); stroke-opacity: 0.15; stroke-width: 1px;"/><path class="ygrid crisp" transform="translate(0,296.63)" d="M60,0h1025" style="stroke: rgb(128, 128, 128); stroke-opacity: 0.15; stroke-width: 1px;"/><path class="ygrid crisp" transform="translate(0,250.51)" d="M60,0h1025" style="stroke: rgb(128, 128, 128); stroke-opacity: 0.15; stroke-width: 1px;"/><path class="ygrid crisp" transform="translate(0,204.39)" d="M60,0h1025" style="stroke: rgb(128, 128, 128); stroke-opacity: 0.15; stroke-width: 1px;"/><path class="ygrid crisp" transform="translate(0,158.26999999999998)" d="M60,0h1025" style="stroke: rgb(128, 128, 128); stroke-opacity: 0.15; stroke-width: 1px;"/><path class="ygrid crisp" transform="translate(0,112.15)" d="M60,0h1025" style="stroke: rgb(128, 128, 128); stroke-opacity: 0.15; stroke-width: 1px;"/><path class="ygrid crisp" transform="translate(0,66.02)" d="M60,0h1025" style="stroke: rgb(128, 128, 128); stroke-opacity: 0.15; stroke-width: 1px;"/></g></g><g class="zerolinelayer"><path class="yzl zl crisp" transform="translate(0,435)" d="M60,0h1025" style="stroke: rgb(128, 128, 128); stroke-opacity: 0.2; stroke-width: 1px;"/></g><g class="layer-between"><g class="shapelayer"/><g class="imagelayer"/></g><path class="xlines-below"/><path class="ylines-below"/><g class="overlines-below"/><g class="xaxislayer-below"/><g class="yaxislayer-below"/><g class="overaxes-below"/><g class="overplot"><g class="xy" transform="translate(60,50)" clip-path="url(#clipa25a5fxyplot)"><g class="scatterlayer mlayer"><g class="trace scatter trace9dbd02" style="stroke-miterlimit: 2; opacity: 1;"><g class="fills"/><g class="errorbars"/><g class="lines"><path class="js-line" d="M0,22.36L6.88,25.95L13.76,23.91L27.52,23.9L34.4,22.23L48.15,22.69L55.03,21.51L61.91,20.95L68.79,21.39L75.67,20.97L82.55,21.31L89.43,20.58L96.31,21.13L103.19,20.87L110.07,23.7L116.95,20.23L123.83,21.14L130.7,20.47L137.58,20.82L144.46,20.23L151.34,20.98L165.1,20.93L171.98,20.86L178.86,21.16L185.74,20.48L213.26,20.54L220.13,20.52L275.17,21.16L282.05,21.62L288.93,21.07L295.81,21.66L302.68,21.45L309.56,22.52L316.44,21.19L323.32,21.16L337.08,21.46L343.96,22.02L371.48,22.5L378.36,23.34L392.11,24.79L398.99,24.99L405.87,25.14L412.75,27.17L419.63,30.36L426.51,30.52L433.39,35.01L440.27,37.94L447.15,42.14L454.03,50.42L460.91,54.11L467.79,74.68L474.66,64.73L481.54,66.97L488.42,81.5L495.3,86.3L502.18,104.86L509.06,97.87L515.94,74.54L522.82,104.62L529.7,96.14L536.58,91.28L543.46,94.93L550.34,89.84L557.21,110.22L564.09,108.15L570.97,126.38L577.85,113.07L584.73,108.74L591.61,98.44L598.49,135.24L605.37,131.67L612.25,117.21L619.13,110.71L626.01,107.61L632.89,114.92L639.77,128.96L646.64,133.74L653.52,97.96L660.4,88.28L667.28,74.49L674.16,72.48L687.92,70.21L694.8,68.43L701.68,65.46L708.56,60.41L715.44,56L722.32,57.61L729.19,58.82L736.07,62.69L742.95,68.12L749.83,56.46L763.59,72.21L770.47,71.04L777.35,81.56L784.23,75.54L791.11,74.34L797.99,86.4L804.87,92.05L811.74,82.06L818.62,79.23L825.5,88.09L832.38,89.26L839.26,95.9L846.14,105.04L853.02,88.36L859.9,90.9L866.78,81.73L873.66,104.99L880.54,97.19L887.42,88.88L894.3,99.56L901.17,88.64L908.05,105.7L914.93,107.96L921.81,99.57L928.69,84.78L935.57,96.19L942.45,93.88L949.33,84.36L956.21,83.64L963.09,80.83L969.97,78.67L976.85,78.09L983.72,75.18L990.6,65.43L997.48,61.38L1004.36,58.44L1025,52.34" style="vector-effect: none; fill: none; stroke: rgb(124, 181, 236); stroke-opacity: 1; stroke-width: 2px; opacity: 1;"/></g><g class="points"/><g class="text"/></g><g class="trace scatter trace585a11" style="stroke-miterlimit: 2; opacity: 1;"><g class="fills"/><g class="errorbars"/><g class="lines"><path class="js-line" d="M0,21.94L6.88,25.63L13.76,23.74L27.52,24.15L34.4,23.36L41.28,21.76L48.15,22.28L61.91,20.76L68.79,21.3L89.43,20.03L96.31,20.77L103.19,20.81L110.07,23.83L116.95,21.33L123.83,27.71L130.7,23.72L137.58,42.58L144.46,21.12L151.34,21.72L158.22,20.64L165.1,20.75L178.86,21.37L185.74,22.46L192.62,21.15L199.5,21.09L206.38,21.7L213.26,21.11L233.89,21.92L240.77,22.55L247.65,24.52L254.53,23.05L268.29,23.37L275.17,24.23L282.05,25.25L288.93,27.97L302.68,35.75L309.56,44.92L316.44,63.23L323.32,54.32L330.2,60.8L337.08,93.98L343.96,87.51L350.84,53.38L357.72,45.74L364.6,54.76L371.48,71.93L378.36,86.36L385.23,53.85L392.11,62.22L398.99,38.25L405.87,38.38L412.75,41.2L419.63,45.63L426.51,37.88L433.39,42.07L440.27,43.14L447.15,47.64L454.03,57.62L460.91,69.03L467.79,108.34L474.66,99.8L481.54,129.07L488.42,138.36L495.3,126.14L502.18,138.14L509.06,137.42L515.94,119.62L522.82,137.35L529.7,148.27L536.58,143.72L543.46,146.7L550.34,136.75L557.21,148.75L564.09,147.58L570.97,142.09L577.85,146.42L584.73,146.97L591.61,146.3L598.49,147.71L605.37,164.43L612.25,175.22L619.13,161.28L626.01,149.75L632.89,146.68L639.77,151.26L646.64,184.69L653.52,185.87L660.4,154.81L667.28,140.66L674.16,140.24L681.04,135.48L687.92,127.5L694.8,123.46L701.68,118.22L708.56,108.23L715.44,99.62L722.32,86.58L729.19,85.35L736.07,86.7L742.95,96.66L749.83,90.5L756.71,107.05L763.59,109.21L770.47,111.98L777.35,120.2L791.11,117.66L797.99,132.05L804.87,141.08L811.74,132.68L818.62,140.55L825.5,137.89L832.38,141.62L839.26,140.47L846.14,138.97L853.02,139.59L866.78,130.31L873.66,135.84L880.54,137.34L887.42,132.98L894.3,134.26L901.17,126.76L908.05,124.89L914.93,132.82L921.81,135.82L928.69,128.29L935.57,122.39L942.45,123.03L949.33,120.41L956.21,118.62L976.85,111.58L983.72,111.67L997.48,103.56L1004.36,100.84L1025,97.15" style="vector-effect: none; fill: none; stroke: rgb(67, 67, 72); stroke-opacity: 1; stroke-width: 2px; opacity: 1;"/></g><g class="points"/><g class="text"/></g><g class="trace scatter trace7bfbcf" style="stroke-miterlimit: 2; opacity: 1;"><g class="fills"/><g class="errorbars"/><g class="lines"><path class="js-line" d="M0,22.22L6.88,26.95L13.76,24.41L27.52,23.91L34.4,21.89L48.15,22.56L55.03,21.29L61.91,20.7L68.79,21.02L103.19,20.36L110.07,22.58L116.95,19.89L123.83,20.59L130.7,19.83L137.58,20.13L144.46,19.65L151.34,20.07L206.38,20.45L213.26,20.11L220.13,20.67L227.01,20.06L247.65,20.63L254.53,20.61L268.29,20.46L275.17,20.63L295.81,21.56L302.68,21.17L309.56,23.17L316.44,21.55L330.2,22.01L337.08,23.6L350.84,24.74L357.72,23.99L364.6,26.29L371.48,38.98L378.36,37.21L385.23,34.38L392.11,30.67L398.99,27.85L412.75,29.57L419.63,32.94L426.51,30.43L433.39,33.01L440.27,35.13L447.15,39.04L454.03,47.74L460.91,53.53L467.79,74.37L474.66,71.85L481.54,87.41L488.42,109.05L495.3,96.46L502.18,117.73L509.06,110.85L515.94,93.33L522.82,115.88L529.7,123L536.58,118.55L543.46,120.08L550.34,103.18L557.21,129.36L564.09,124.11L570.97,125.53L577.85,125.62L584.73,122.86L591.61,110.09L598.49,128.46L605.37,136.79L612.25,125.7L619.13,120.06L626.01,118.48L632.89,120.51L639.77,128.7L646.64,143.16L653.52,128.28L660.4,120.9L667.28,104.21L674.16,97.17L681.04,93.08L687.92,90.61L694.8,89.95L701.68,83.47L708.56,74.18L715.44,67.39L722.32,68.23L729.19,65.9L736.07,70.11L742.95,78.57L749.83,70.09L756.71,86.02L763.59,96.77L770.47,96.84L777.35,108.79L791.11,103.61L797.99,121.82L804.87,128.83L811.74,126.4L818.62,129.42L825.5,133.35L832.38,137.99L839.26,139.19L846.14,142.15L853.02,138.93L859.9,135.01L866.78,129.46L873.66,142.48L880.54,141.97L887.42,135.39L894.3,138.5L901.17,129.76L908.05,132.3L914.93,140.04L921.81,140.77L928.69,129.56L935.57,126.24L942.45,126.53L949.33,123.65L963.09,120.52L969.97,117.18L976.85,114.99L983.72,114.16L990.6,108.09L997.48,104.03L1011.24,98.96L1018.12,97.22L1025,93.84" style="vector-effect: none; fill: none; stroke: rgb(144, 237, 125); stroke-opacity: 1; stroke-width: 2px; opacity: 1;"/></g><g class="points"/><g class="text"/></g><g class="trace scatter traceca7aa4" style="stroke-miterlimit: 2; opacity: 1;"><g class="fills"/><g class="errorbars"/><g class="lines"><path class="js-line" d="M0,22.61L6.88,26.31L13.76,24.45L27.52,24.29L34.4,22.54L41.28,22.28L48.15,23.16L61.91,21.16L68.79,21.62L89.43,21.06L96.31,21.65L103.19,21.08L110.07,22.37L116.95,20.38L123.83,21.4L130.7,20.51L137.58,21.04L144.46,20.09L151.34,20.55L178.86,21.31L185.74,20.58L206.38,21.03L213.26,20.67L220.13,21.31L227.01,20.57L254.53,20.99L261.41,20.74L275.17,20.96L282.05,21.03L295.81,21.86L302.68,21.34L309.56,22.93L316.44,21.77L330.2,21.39L337.08,22.24L371.48,22.82L378.36,23.88L385.23,25.42L392.11,23.37L405.87,23.93L412.75,25.46L419.63,26.71L426.51,27.02L440.27,31.26L447.15,34.31L460.91,48.01L467.79,81.7L474.66,66.63L481.54,96.94L488.42,106.83L495.3,90.77L502.18,106.11L509.06,109.46L515.94,101.12L522.82,111.21L529.7,120.43L536.58,117.02L543.46,106.41L550.34,94.07L557.21,114.92L564.09,108.52L570.97,111.37L577.85,123.01L584.73,109.32L591.61,102.69L598.49,118.66L605.37,129.14L612.25,136.86L619.13,134.57L626.01,126.24L632.89,125.06L639.77,130.04L646.64,136.7L667.28,106.93L674.16,103.91L694.8,96.13L701.68,91.29L708.56,82.47L715.44,75.54L722.32,76.04L729.19,75.36L742.95,86.23L749.83,84.53L756.71,99.08L763.59,105.95L770.47,111.4L777.35,118.49L784.23,124.07L791.11,121.84L797.99,135.75L804.87,145.42L811.74,135.08L818.62,142.77L825.5,141.71L832.38,147.59L839.26,146.01L846.14,147.62L853.02,153.36L859.9,140.74L866.78,138.39L873.66,147.62L880.54,147.12L887.42,148.36L894.3,152.33L901.17,143.35L908.05,142.99L914.93,150.5L921.81,149.85L928.69,140.94L935.57,137.42L942.45,138.06L949.33,135.12L956.21,133.46L963.09,131.42L969.97,127.08L976.85,124.5L983.72,122.8L990.6,117.4L997.48,113.85L1004.36,111.59L1011.24,110.28L1025,106.1" style="vector-effect: none; fill: none; stroke: rgb(247, 163, 92); stroke-opacity: 1; stroke-width: 2px; opacity: 1;"/></g><g class="points"/><g class="text"/></g><g class="trace scatter trace4567b3" style="stroke-miterlimit: 2; opacity: 1;"><g class="fills"/><g class="errorbars"/><g class="lines"><path class="js-line" d="M0,22.49L6.88,28.19L13.76,25L34.4,21.81L41.28,22.72L55.03,21.19L61.91,21.28L68.79,20.24L75.67,20.99L82.55,21.5L89.43,20.33L96.31,21.14L103.19,20.82L110.07,22.36L116.95,19.79L137.58,20.12L144.46,19.81L151.34,20.85L158.22,20.38L165.1,20.66L171.98,19.68L192.62,20.06L199.5,20.53L206.38,21.27L213.26,19.65L233.89,20.54L240.77,20.5L247.65,19.7L254.53,20.15L261.41,19.52L268.29,19.7L288.93,19.31L295.81,20.34L309.56,21.4L316.44,20.13L330.2,19.25L337.08,19.51L343.96,20.77L350.84,20.88L357.72,20.03L364.6,20.67L371.48,21.67L378.36,24.71L385.23,25.55L392.11,24.84L405.87,25.18L412.75,27.09L419.63,29.09L426.51,29.33L440.27,34.92L447.15,39.96L454.03,49.94L460.91,61.73L467.79,111.17L474.66,86.84L488.42,122.33L495.3,115.01L502.18,154.3L509.06,133.4L515.94,99.18L522.82,159.13L529.7,143.42L536.58,137.86L543.46,130.32L550.34,112.68L557.21,150.09L564.09,143.6L570.97,192.6L577.85,167.41L584.73,155.32L591.61,126.68L598.49,201.12L605.37,197.8L612.25,167.19L619.13,152.37L626.01,142.52L632.89,164.27L639.77,187.71L646.64,206.36L653.52,152.32L660.4,132.61L667.28,105.15L674.16,97.36L681.04,93.01L687.92,86.89L694.8,86.25L701.68,83.48L708.56,73.53L715.44,65.5L729.19,58.08L736.07,57.05L742.95,56.07L749.83,51.91L763.59,51.54L770.47,50.83L777.35,50.98L784.23,50.11L791.11,48.86L797.99,51.39L804.87,57.96L811.74,46.31L825.5,52.92L832.38,47.26L839.26,52.56L846.14,53.97L853.02,48.13L859.9,51.45L866.78,44.66L873.66,51.87L880.54,47.01L887.42,44.61L894.3,51L901.17,45.6L908.05,53.69L914.93,52.8L928.69,43.59L935.57,51.14L942.45,50.55L949.33,46.56L969.97,45.55L976.85,46.72L983.72,46.02L990.6,41.81L1004.36,39.47L1011.24,38.72L1025,37.65" style="vector-effect: none; fill: none; stroke: rgb(128, 133, 233); stroke-opacity: 1; stroke-width: 2px; opacity: 1;"/></g><g class="points"/><g class="text"/></g><g class="trace scatter tracef8be99" style="stroke-miterlimit: 2; opacity: 1;"><g class="fills"/><g class="errorbars"/><g class="lines"><path class="js-line" d="M0,22.51L6.88,27.54L13.76,24.54L27.52,23.49L34.4,22.05L48.15,21.9L55.03,21.3L68.79,20.48L75.67,20.98L82.55,21.24L89.43,20.38L96.31,21.08L103.19,20.51L110.07,23.15L116.95,19.58L137.58,20.07L144.46,19.81L151.34,20.55L158.22,20.26L165.1,20.75L171.98,20.04L192.62,20.08L199.5,20.35L206.38,20.92L213.26,19.91L220.13,20.55L227.01,20.24L254.53,20.66L261.41,20.87L275.17,21.72L282.05,24.76L288.93,22.51L295.81,22.56L302.68,21.29L309.56,22.3L316.44,20.69L323.32,20.56L337.08,20.27L343.96,21.48L357.72,21.06L364.6,20.58L378.36,21.51L385.23,21.88L392.11,23.12L398.99,23.32L405.87,24.57L412.75,26.79L419.63,29.95L426.51,29.04L440.27,34.6L447.15,39.97L454.03,49.67L460.91,63.23L467.79,126.75L474.66,96.5L481.54,135.6L488.42,166.6L495.3,134.4L502.18,166.47L509.06,167.98L515.94,142.42L529.7,184.51L536.58,184.38L543.46,168.93L550.34,133.4L557.21,183.07L564.09,165.4L570.97,178.38L577.85,196.99L591.61,153.1L598.49,183.28L605.37,206.52L612.25,206.27L619.13,197.73L626.01,182.46L632.89,185.84L639.77,196.99L646.64,215.02L653.52,189.45L660.4,167.32L667.28,149.21L674.16,139.44L681.04,131.74L687.92,124.21L694.8,119.74L701.68,112.74L708.56,98.22L715.44,86.79L722.32,82.18L729.19,78.36L736.07,77.22L742.95,77.25L749.83,71.86L756.71,75.62L763.59,77.09L770.47,76.72L777.35,78.17L784.23,78.27L791.11,75.39L797.99,80.07L804.87,87.13L811.74,74.82L818.62,80.75L825.5,81.04L832.38,79.38L839.26,80.97L846.14,79.77L853.02,79.68L859.9,76.24L866.78,71.94L873.66,78.06L880.54,75.31L887.42,73.53L894.3,77.85L901.17,71.89L914.93,78.38L921.81,74.16L928.69,68.67L935.57,69.3L942.45,70.83L949.33,69.59L969.97,65.01L976.85,65.19L983.72,64.57L990.6,60.35L1004.36,57.9L1011.24,57.22L1025,55.85" style="vector-effect: none; fill: none; stroke: rgb(241, 92, 128); stroke-opacity: 1; stroke-width: 2px; opacity: 1;"/></g><g class="points"/><g class="text"/></g><g class="trace scatter traceb31dbe" style="stroke-miterlimit: 2; opacity: 1;"><g class="fills"/><g class="errorbars"/><g class="lines"><path class="js-line" d="M0,22.36L6.88,28.6L13.76,25.13L27.52,23.84L34.4,22.08L48.15,22.43L55.03,21.76L68.79,20.94L75.67,21.6L89.43,20.74L96.31,21.57L103.19,20.95L110.07,23.1L116.95,19.87L123.83,20.45L144.46,19.76L151.34,20.5L165.1,20.85L171.98,20.13L199.5,20.5L206.38,20.86L213.26,19.87L220.13,20.42L233.89,20.25L240.77,20.36L247.65,19.99L254.53,20.52L261.41,19.92L268.29,20.29L275.17,20.51L282.05,21.61L288.93,20.64L295.81,21.22L302.68,20.91L309.56,22.18L316.44,20.37L323.32,20.1L337.08,20.14L343.96,21.34L350.84,21.4L357.72,20.25L364.6,20.45L371.48,21.45L378.36,21.6L385.23,22.54L392.11,24.38L398.99,25.35L405.87,28.35L412.75,28.38L419.63,30.34L426.51,29.9L440.27,37.91L447.15,43.83L460.91,69.06L467.79,120.96L474.66,105.25L481.54,141.37L488.42,177.14L495.3,146.82L502.18,182.05L509.06,180.1L515.94,152.08L522.82,177.34L529.7,195.95L536.58,193.6L543.46,178.03L550.34,143.26L557.21,191.63L564.09,175.69L577.85,202.29L584.73,183.04L591.61,161.11L598.49,189.45L605.37,213L612.25,207.75L626.01,185.01L632.89,185.68L639.77,196.93L646.64,216.23L660.4,170.79L667.28,153.06L674.16,143.63L681.04,136.28L687.92,128.81L694.8,124.06L701.68,115.08L708.56,97.49L715.44,84.75L722.32,79.57L729.19,75.97L736.07,74.97L742.95,75.14L749.83,69L756.71,72.68L763.59,74.21L770.47,73.89L777.35,75.06L784.23,74.22L791.11,72.15L797.99,76.33L804.87,84.53L811.74,71.79L818.62,78.06L825.5,79.71L832.38,78.17L839.26,79.82L846.14,79.54L853.02,78.58L859.9,76.22L866.78,72.42L873.66,77.85L887.42,72.59L894.3,77L901.17,71.42L908.05,74.5L914.93,77.74L921.81,73.52L928.69,67.96L935.57,68.87L942.45,70.53L949.33,69.22L969.97,64.63L976.85,65.01L983.72,64.89L990.6,60.72L997.48,58.83L1004.36,57.93L1025,56.32" style="vector-effect: none; fill: none; stroke: rgb(228, 211, 84); stroke-opacity: 1; stroke-width: 2px; opacity: 1;"/></g><g class="points"/><g class="text"/></g><g class="trace scatter trace5a9560" style="stroke-miterlimit: 2; opacity: 1;"><g class="fills"/><g class="errorbars"/><g class="lines"><path class="js-line" d="M0,22.63L6.88,29.38L13.76,25.54L34.4,21.93L41.28,22.04L48.15,22.31L55.03,21.25L68.79,20.99L75.67,21.27L82.55,21.3L89.43,20.48L96.31,21.26L103.19,21.19L110.07,23.07L116.95,20.37L123.83,22.79L130.7,22.06L137.58,34.57L144.46,23.59L151.34,25.01L158.22,21.78L171.98,20.7L178.86,21.37L185.74,21.55L192.62,20.92L206.38,21.95L213.26,20.42L254.53,21.04L261.41,20.67L268.29,22.42L275.17,22.45L282.05,24.84L288.93,21.17L302.68,25.87L309.56,26.49L316.44,25.64L323.32,26.37L330.2,25.38L337.08,31.2L343.96,34.9L350.84,29.66L364.6,26.65L371.48,31.97L378.36,30.27L385.23,30.69L392.11,31.13L398.99,28.69L405.87,29.28L412.75,31.36L419.63,33.58L426.51,32.5L440.27,36.49L447.15,39.95L460.91,55.58L467.79,84.74L474.66,75.37L481.54,75.64L488.42,96.69L495.3,103.58L502.18,134.26L509.06,116.9L515.94,87.29L522.82,124.08L536.58,117.18L543.46,119.98L550.34,100.8L557.21,124.01L564.09,128L570.97,154.02L577.85,136.54L584.73,133.67L591.61,112.97L598.49,152.55L605.37,159.59L612.25,131.62L619.13,114.63L626.01,110L632.89,118.02L639.77,136.41L646.64,163.99L653.52,127.91L667.28,83.69L674.16,74.77L687.92,70.09L694.8,69.07L701.68,66.85L708.56,59.02L715.44,53L722.32,52.66L729.19,51.91L736.07,56.8L742.95,60.08L749.83,54.57L756.71,58.1L763.59,65.43L770.47,67.05L777.35,72.93L784.23,71.11L791.11,67.38L797.99,75.92L804.87,88.94L811.74,75.19L818.62,77.85L825.5,84.59L832.38,81.26L839.26,95L846.14,94.25L853.02,84.04L859.9,89.93L866.78,77.99L873.66,95.39L880.54,92.1L887.42,83.52L894.3,91.32L901.17,83.99L908.05,93.76L914.93,97.39L921.81,95L928.69,81.43L935.57,88.94L942.45,87.52L949.33,79.89L956.21,78.4L963.09,77.35L969.97,74.71L983.72,73.73L990.6,65.46L997.48,61.54L1004.36,58.62L1025,52.65" style="vector-effect: none; fill: none; stroke: rgb(43, 144, 143); stroke-opacity: 1; stroke-width: 2px; opacity: 1;"/></g><g class="points"/><g class="text"/></g><g class="trace scatter trace80c009" style="stroke-miterlimit: 2; opacity: 1;"><g class="fills"/><g class="errorbars"/><g class="lines"><path class="js-line" d="M0,22.33L6.88,27.23L13.76,24.39L27.52,23.75L34.4,21.83L48.15,22.71L55.03,21.21L75.67,20.76L82.55,20.8L89.43,20.53L96.31,21.05L103.19,20.4L110.07,22.5L116.95,19.77L123.83,20.63L130.7,19.99L137.58,20.15L144.46,19.76L151.34,20.23L199.5,20.24L206.38,20.69L213.26,20.16L220.13,20.49L227.01,20.11L233.89,20.63L282.05,21.02L288.93,20.58L295.81,21.32L302.68,21L309.56,22.64L316.44,21.3L330.2,21L337.08,21.99L350.84,22.25L357.72,21.63L371.48,22.46L378.36,23.14L398.99,25.46L405.87,26.94L419.63,32.14L426.51,32.36L433.39,33.96L440.27,37.7L447.15,42.25L454.03,53.4L460.91,58.85L467.79,86.99L474.66,75.58L481.54,82.93L488.42,98.35L495.3,94.97L502.18,114.34L509.06,110.01L515.94,89.72L522.82,115.01L529.7,114.14L536.58,107.97L543.46,109.71L550.34,100.51L557.21,125.66L564.09,123.75L570.97,132.57L577.85,124.98L584.73,120.14L591.61,109.25L598.49,140.36L605.37,142.38L612.25,130.83L619.13,124.64L626.01,121.88L632.89,125.12L639.77,137.56L646.64,145.69L653.52,119.01L660.4,109.23L667.28,93.96L674.16,86.8L694.8,81.89L701.68,78.07L708.56,68.44L715.44,63.98L722.32,64.97L729.19,66.78L736.07,71.64L742.95,82.15L749.83,67.53L756.71,82.1L763.59,91.09L770.47,85.78L777.35,102.38L784.23,93.81L791.11,91.76L797.99,109.22L804.87,110.26L811.74,105.78L818.62,103.64L825.5,107.11L832.38,112.22L839.26,111.79L846.14,122.93L853.02,110.53L859.9,107.46L866.78,102.65L873.66,121.19L880.54,116.81L887.42,109.49L894.3,116.06L901.17,105.54L908.05,117.62L914.93,122.32L921.81,116.72L928.69,104.21L935.57,108.35L942.45,107.58L949.33,102.97L956.21,101.33L963.09,97.56L969.97,93.96L976.85,92.44L983.72,89.88L990.6,81.55L1004.36,74.28L1011.24,71.49L1018.12,69.46L1025,66.29" style="vector-effect: none; fill: none; stroke: rgb(244, 91, 91); stroke-opacity: 1; stroke-width: 2px; opacity: 1;"/></g><g class="points"/><g class="text"/></g><g class="trace scatter tracef42a62" style="stroke-miterlimit: 2; opacity: 1;"><g class="fills"/><g class="errorbars"/><g class="lines"><path class="js-line" d="M0,22.47L6.88,25.65L13.76,24.19L27.52,24.2L34.4,22.3L48.15,23.19L55.03,21.72L61.91,21.2L68.79,21.73L75.67,21.24L82.55,21.64L89.43,20.8L96.31,21.49L103.19,20.75L110.07,22.37L116.95,20.1L123.83,20.75L130.7,20.15L137.58,20.53L144.46,20.09L151.34,20.49L171.98,20.98L178.86,21.3L192.62,20.47L199.5,20.66L220.13,21.87L227.01,20.51L254.53,21.9L261.41,20.71L268.29,21.83L275.17,21.55L282.05,22.32L288.93,21.55L295.81,21.95L302.68,21.49L309.56,22.73L316.44,21.93L330.2,22.1L337.08,23.07L364.6,23.11L371.48,24.38L378.36,25.18L385.23,24.99L405.87,26.73L412.75,28.03L419.63,30.55L426.51,30.82L447.15,40.72L454.03,49.67L460.91,56.48L467.79,85L474.66,74.39L481.54,94.51L488.42,103.04L495.3,88.41L502.18,104.11L509.06,106.43L515.94,95.76L522.82,108.57L529.7,116.68L536.58,112.6L543.46,107.67L550.34,97.33L557.21,118.3L564.09,113.01L570.97,113.5L577.85,120.51L584.73,111.62L591.61,105.76L598.49,120.83L605.37,126.78L612.25,126.51L619.13,124.18L626.01,118.79L632.89,119.13L646.64,130.97L653.52,119.94L667.28,102.83L674.16,98.76L687.92,93.89L694.8,90.55L701.68,85.83L708.56,77.55L715.44,71.79L722.32,73.17L729.19,75.8L736.07,81.45L742.95,94.82L749.83,83.4L756.71,106.77L763.59,111.2L770.47,115.78L777.35,129L784.23,129.69L791.11,128.88L797.99,143.5L804.87,150.58L811.74,143.42L818.62,146.93L825.5,146.12L832.38,151.91L839.26,148.16L846.14,150.46L853.02,153.64L859.9,140.9L866.78,139.17L873.66,148.85L880.54,149.59L887.42,149.47L894.3,151.06L901.17,142.28L908.05,143.56L914.93,151.42L921.81,151.21L928.69,141.39L935.57,136.54L942.45,135.93L949.33,133.09L956.21,131.13L963.09,127.48L969.97,122.84L976.85,120.26L983.72,118.49L990.6,113.39L997.48,110.6L1011.24,107.44L1018.12,106.19L1025,103.52" style="vector-effect: none; fill: none; stroke: rgb(145, 232, 225); stroke-opacity: 1; stroke-width: 2px; opacity: 1;"/></g><g class="points"/><g class="text"/></g><g class="trace scatter tracea64bc9" style="stroke-miterlimit: 2; opacity: 1;"><g class="fills"/><g class="errorbars"/><g class="lines"><path class="js-line" d="M0,22.45L6.88,27.88L13.76,25.15L27.52,24.09L34.4,22.37L48.15,22.69L55.03,21.38L61.91,20.82L68.79,21.15L82.55,21.14L89.43,20.31L96.31,21.11L103.19,20.45L110.07,22.99L116.95,20.02L123.83,22.45L130.7,20.4L137.58,21.9L144.46,19.93L158.22,20.27L165.1,20.62L233.89,20.59L240.77,21.02L275.17,21.04L282.05,22.03L288.93,21.06L295.81,21.55L302.68,20.94L309.56,22.14L316.44,20.87L323.32,21.25L337.08,21.3L343.96,21.89L364.6,21.22L371.48,22.1L405.87,25.64L412.75,28.01L419.63,30.21L426.51,30.39L433.39,32.82L440.27,36.87L447.15,41.17L454.03,51.58L460.91,58.84L467.79,96.41L474.66,79.27L481.54,95.02L488.42,110.73L495.3,97.65L502.18,121.91L509.06,117.87L515.94,97.21L522.82,124.8L529.7,127.26L536.58,120.8L543.46,117.13L550.34,102.92L557.21,135.98L564.09,127.84L570.97,137.67L577.85,136.24L584.73,126.61L591.61,112.96L598.49,146.04L605.37,151.39L612.25,142.76L619.13,138.9L626.01,133.89L632.89,135.82L639.77,146.42L646.64,154.37L653.52,132.37L660.4,122.85L667.28,109.79L674.16,102.25L681.04,97.86L687.92,94.72L694.8,91.1L701.68,85.77L708.56,75.55L715.44,69.83L722.32,71.29L729.19,71.33L742.95,82.19L749.83,73.42L756.71,86.92L763.59,92.72L770.47,89.92L777.35,102.6L784.23,97.93L791.11,96.84L797.99,109.96L804.87,117.05L811.74,107.26L818.62,110.83L825.5,116.07L832.38,116.18L839.26,118.19L846.14,124.57L853.02,117.36L859.9,112.46L866.78,109.29L873.66,124.17L880.54,118.53L887.42,114.34L894.3,120.48L901.17,109.49L908.05,119.53L914.93,124.51L921.81,117.89L928.69,107.24L935.57,110.06L942.45,110.3L949.33,107.52L956.21,105.69L969.97,99.43L976.85,98.77L983.72,97.13L990.6,90.02L1004.36,84.18L1011.24,81.92L1018.12,80.06L1025,76.97" style="vector-effect: none; fill: none; stroke: rgb(124, 181, 236); stroke-opacity: 1; stroke-width: 2px; opacity: 1;"/></g><g class="points"/><g class="text"/></g><g class="trace scatter trace2c0ef4" style="stroke-miterlimit: 2; opacity: 1;"><g class="fills"/><g class="errorbars"/><g class="lines"><path class="js-line" d="M0,22.57L6.88,25.48L13.76,23.8L27.52,23.76L34.4,22.07L48.15,22.91L55.03,21.37L61.91,20.84L68.79,21.5L89.43,20.38L96.31,21.24L103.19,20.56L110.07,22.15L116.95,19.89L123.83,21.28L130.7,20.08L137.58,20.08L144.46,19.78L151.34,20.26L178.86,21.31L185.74,20.43L192.62,20.84L199.5,20.25L220.13,20.55L227.01,20.08L240.77,21.53L247.65,20.95L268.29,20.83L275.17,20.98L302.68,21.21L309.56,22.48L316.44,21.54L323.32,21.59L364.6,22.08L371.48,22.5L392.11,24.22L398.99,24.86L419.63,27.29L426.51,26.96L447.15,33.13L454.03,37.68L460.91,41.96L467.79,63.1L474.66,55.84L481.54,73.09L488.42,79.87L495.3,67.52L502.18,79.21L509.06,80.8L515.94,72.52L522.82,83.37L529.7,90.36L536.58,86.69L543.46,84.74L550.34,75.83L557.21,91.46L564.09,87.52L570.97,86.39L577.85,92.94L584.73,86.12L591.61,80.85L598.49,93.11L605.37,98.08L612.25,100.93L619.13,99.98L626.01,94.52L632.89,94.6L639.77,98.81L646.64,104.41L653.52,97.17L660.4,91.82L667.28,84.93L674.16,81.64L694.8,76L701.68,73.04L708.56,67.13L715.44,63.68L722.32,66.72L729.19,67.88L742.95,80.44L749.83,82.26L756.71,101.17L763.59,107.26L770.47,112.31L777.35,124.37L784.23,125.2L791.11,128.08L797.99,144.48L804.87,152.46L811.74,148.67L818.62,157.21L825.5,159.67L832.38,164.25L839.26,164.55L846.14,165.92L853.02,170.71L859.9,160.37L866.78,157.78L873.66,169.28L880.54,168.59L887.42,166.83L894.3,170.39L901.17,159.85L908.05,159.48L914.93,169.86L921.81,171.08L928.69,161.92L935.57,156.82L942.45,156.93L949.33,154.15L956.21,153.45L963.09,151.43L969.97,146.24L976.85,142.77L983.72,141.16L990.6,135.5L997.48,131.27L1011.24,125.42L1018.12,122.51L1025,118.38" style="vector-effect: none; fill: none; stroke: rgb(67, 67, 72); stroke-opacity: 1; stroke-width: 2px; opacity: 1;"/></g><g class="points"/><g class="text"/></g><g class="trace scatter trace5dba1c" style="stroke-miterlimit: 2; opacity: 1;"><g class="fills"/><g class="errorbars"/><g class="lines"><path class="js-line" d="M0,22.51L6.88,26.66L13.76,24.29L20.64,24.51L27.52,23.96L34.4,22.41L41.28,22.48L48.15,22.84L55.03,22.01L68.79,21.31L75.67,21.39L103.19,20.94L110.07,22.38L116.95,20.18L123.83,20.81L144.46,20.03L151.34,20.54L199.5,20.55L206.38,21.11L213.26,20.26L220.13,20.92L233.89,20.67L240.77,20.96L288.93,20.7L295.81,21.62L302.68,21.34L309.56,23.17L323.32,21.15L330.2,21L343.96,22.57L350.84,22.57L364.6,22.55L371.48,23.39L392.11,24.86L398.99,25.78L405.87,26.7L412.75,28.58L419.63,30.2L426.51,30.09L433.39,32.9L440.27,36.57L447.15,40.73L454.03,50.14L460.91,55.96L467.79,76.8L474.66,73.61L481.54,79.15L488.42,108.29L495.3,103.1L502.18,125.08L509.06,118.06L515.94,97.53L522.82,115.53L529.7,130.74L536.58,127.39L543.46,131.03L550.34,111.45L557.21,140.82L564.09,140.26L570.97,142.91L577.85,144.54L584.73,139.81L591.61,122.89L598.49,149.1L605.37,160.74L612.25,148.09L619.13,137.92L626.01,131.83L632.89,136.81L639.77,147.69L646.64,165.11L653.52,143.79L660.4,128.44L667.28,109.34L674.16,99.92L687.92,92.1L694.8,89.68L701.68,86.07L708.56,77.74L715.44,72.07L722.32,71.91L729.19,71.48L736.07,73.86L742.95,80.61L749.83,70.25L756.71,76.98L763.59,92.35L770.47,93.12L777.35,100.28L784.23,96.76L791.11,89.42L797.99,104.79L804.87,110.27L811.74,106.11L818.62,105.04L825.5,107.22L832.38,112.22L839.26,114.08L846.14,115.13L859.9,109.27L866.78,102.55L873.66,114.94L880.54,114.66L887.42,107.8L894.3,110.4L901.17,102.62L908.05,106.03L914.93,112.64L921.81,112.7L928.69,103.02L935.57,100.1L942.45,99.92L949.33,97.11L963.09,93.55L969.97,90.89L983.72,88.58L990.6,82.6L1004.36,75.46L1011.24,72.92L1018.12,71.24L1025,68.25" style="vector-effect: none; fill: none; stroke: rgb(144, 237, 125); stroke-opacity: 1; stroke-width: 2px; opacity: 1;"/></g><g class="points"/><g class="text"/></g><g class="trace scatter tracedf4a08" style="stroke-miterlimit: 2; opacity: 1;"><g class="fills"/><g class="errorbars"/><g class="lines"><path class="js-line" d="M0,22.17L6.88,26.05L13.76,24.04L27.52,24.16L34.4,22.22L48.15,22.44L55.03,21.46L68.79,20.77L75.67,20.51L103.19,20.57L110.07,22.07L116.95,19.75L123.83,20.67L130.7,20.17L137.58,20.51L144.46,19.9L151.34,20.59L158.22,20.28L165.1,20.75L185.74,19.97L192.62,20.23L206.38,21.05L213.26,20.18L220.13,20.54L227.01,20.02L254.53,20.5L261.41,20.41L282.05,21.91L288.93,20.93L309.56,22.08L316.44,20.8L337.08,21.25L343.96,22.08L364.6,21.34L371.48,22.34L385.23,23.2L392.11,25.17L405.87,26.05L412.75,29.26L419.63,31.17L426.51,32.29L440.27,39.76L447.15,45.41L454.03,53.72L460.91,63.89L467.79,99.6L474.66,81.28L481.54,109.99L488.42,133.57L495.3,148.5L502.18,161.3L509.06,169.78L515.94,172.08L522.82,170.25L529.7,182.28L536.58,180.54L543.46,159.8L550.34,152.25L557.21,164.47L564.09,162.69L570.97,165.3L577.85,185.59L584.73,164.88L591.61,160.4L598.49,180.67L605.37,191.38L612.25,214.19L619.13,216.89L626.01,205.27L632.89,200.63L639.77,203.06L646.64,203.17L653.52,190.72L667.28,161.77L674.16,157.06L694.8,150.66L701.68,147.52L708.56,136.6L715.44,128.86L729.19,121.92L736.07,115.52L742.95,111.94L749.83,100.48L756.71,102.86L763.59,103.69L770.47,107.12L777.35,105.28L791.11,103.66L797.99,107.93L804.87,110.25L811.74,102.43L818.62,101.92L825.5,100.63L832.38,103.81L839.26,99.94L853.02,101.87L859.9,95.08L866.78,93.37L873.66,95.33L880.54,95.05L887.42,95.56L894.3,97.94L901.17,95.1L908.05,95.78L914.93,98.48L921.81,95.34L928.69,90.46L935.57,88.53L942.45,88.65L963.09,83.55L969.97,80.96L976.85,79.75L983.72,77.59L990.6,74.67L997.48,72.89L1011.24,71.12L1018.12,70.87L1025,70.36" style="vector-effect: none; fill: none; stroke: rgb(247, 163, 92); stroke-opacity: 1; stroke-width: 2px; opacity: 1;"/></g><g class="points"/><g class="text"/></g><g class="trace scatter trace574a83" style="stroke-miterlimit: 2; opacity: 1;"><g class="fills"/><g class="errorbars"/><g class="lines"><path class="js-line" d="M0,22.25L6.88,26.4L13.76,24.39L20.64,24.77L27.52,24.2L34.4,22.53L41.28,22.41L48.15,23L55.03,22.35L61.91,21.19L68.79,21.23L103.19,20.98L110.07,22.58L116.95,20.12L123.83,20.75L144.46,19.9L151.34,20.58L199.5,20.49L206.38,20.99L213.26,20.47L220.13,21.09L233.89,20.3L240.77,20.84L275.17,20.39L282.05,20.44L288.93,20.52L295.81,21.37L302.68,21.16L309.56,22.5L323.32,20.69L330.2,20.72L350.84,21.95L357.72,21.84L392.11,22.99L398.99,23.98L412.75,25.92L419.63,28.43L426.51,29.61L433.39,32.69L447.15,40.77L454.03,53.8L460.91,60.4L467.79,110.54L474.66,92.17L481.54,116.79L488.42,136.04L495.3,110.74L502.18,135.33L509.06,135.17L515.94,112.58L522.82,137L529.7,147.29L536.58,139.39L543.46,136.94L550.34,111.06L557.21,148.92L564.09,141.68L570.97,148.69L577.85,152.5L584.73,143.53L591.61,127.96L598.49,154.55L605.37,168.13L612.25,157.72L619.13,150.1L626.01,144.79L632.89,147.54L639.77,156.22L646.64,169.84L653.52,147.58L660.4,133.04L667.28,118.27L674.16,108.81L681.04,102.51L687.92,97.74L694.8,94.4L701.68,89.54L708.56,78.24L715.44,70.42L729.19,70.78L736.07,77.7L742.95,84.5L749.83,78.87L756.71,92.12L763.59,99.44L770.47,97.09L777.35,104.22L784.23,104.26L791.11,97.95L797.99,110.45L804.87,116.95L811.74,107.12L818.62,111.5L825.5,110.32L832.38,112.68L846.14,116.79L853.02,116.41L859.9,108.97L866.78,104.43L873.66,116.33L880.54,115.04L887.42,110.47L894.3,112.13L901.17,104.7L908.05,108.7L914.93,114.82L921.81,112.36L928.69,102.4L935.57,100.09L942.45,99.7L949.33,97.15L969.97,91.05L976.85,90.72L983.72,89.95L990.6,84.87L1004.36,80.14L1011.24,78.15L1018.12,76.46L1025,73.56" style="vector-effect: none; fill: none; stroke: rgb(128, 133, 233); stroke-opacity: 1; stroke-width: 2px; opacity: 1;"/></g><g class="points"/><g class="text"/></g><g class="trace scatter trace65bc76" style="stroke-miterlimit: 2; opacity: 1;"><g class="fills"/><g class="errorbars"/><g class="lines"><path class="js-line" d="M0,22.32L6.88,26.27L13.76,24.15L27.52,24.04L34.4,22.2L48.15,22.82L55.03,21.85L61.91,20.94L68.79,21.29L89.43,20.71L96.31,21.49L103.19,20.73L110.07,23.62L116.95,19.99L123.83,20.49L144.46,19.77L151.34,20.33L171.98,20.59L178.86,20.76L185.74,20.05L192.62,20.5L213.26,20.36L220.13,21.14L227.01,20.21L233.89,20.16L240.77,20.77L247.65,20.58L288.93,20.69L295.81,21.35L302.68,21.07L309.56,22.31L316.44,21.2L323.32,20.97L350.84,21.83L357.72,21.27L371.48,21.94L378.36,22.84L398.99,23.72L405.87,24.27L412.75,25.08L419.63,27.62L426.51,27.82L433.39,30.81L447.15,38.6L454.03,49.42L460.91,55.48L467.79,85.43L474.66,77.2L481.54,104.25L488.42,116.74L495.3,96.44L502.18,121.14L509.06,119.46L515.94,101.23L522.82,127L529.7,131.26L536.58,124.78L543.46,117.21L550.34,100.22L557.21,134L564.09,124.76L570.97,136.81L577.85,137.91L584.73,127.67L591.61,115.21L598.49,143.18L605.37,151.72L612.25,144.71L619.13,140.69L626.01,136.05L632.89,138.06L639.77,146.25L646.64,153.04L653.52,134.98L660.4,125.62L667.28,115.68L674.16,110.86L687.92,102.17L694.8,98.4L701.68,92.36L708.56,81.92L715.44,74.99L722.32,76.77L729.19,77.95L736.07,84.37L742.95,89.02L749.83,83.77L756.71,100.34L763.59,107.18L770.47,105.57L777.35,114.62L784.23,114.55L791.11,111.24L797.99,125.33L804.87,131.33L811.74,120.96L818.62,126.61L825.5,127.89L832.38,130.17L839.26,130.99L846.14,135.65L853.02,133.59L859.9,123.68L866.78,121.56L873.66,135.37L887.42,129.57L894.3,132.21L901.17,122.78L908.05,128.47L914.93,134.57L921.81,130.28L928.69,119.45L935.57,118.68L942.45,117.71L949.33,115.02L963.09,110.74L969.97,107.31L983.72,104.76L990.6,99.43L1004.36,95.25L1011.24,93.74L1018.12,92.22L1025,89.69" style="vector-effect: none; fill: none; stroke: rgb(241, 92, 128); stroke-opacity: 1; stroke-width: 2px; opacity: 1;"/></g><g class="points"/><g class="text"/></g></g></g></g><g class="zerolinelayer-above"/><path class="xlines-above crisp" d="M0,0" style="fill: none;"/><path class="ylines-above crisp" d="M0,0" style="fill: none;"/><g class="overlines-above"/><g class="xaxislayer-above"><g class="xtick"><text text-anchor="middle" x="0" y="451" transform="translate(190.7,0)" style="font-family: system-ui, -apple-system, 'Segoe UI', Roboto, 'Helvetica Neue', 'Noto Sans', 'Liberation Sans', Arial, sans-serif, 'Apple Color Emoji', 'Segoe UI Emoji', 'Segoe UI Symbol', 'Noto Color Emoji'; font-size: 10px; fill: rgb(80, 80, 80); fill-opacity: 1; white-space: pre;">20</text></g><g class="xtick"><text text-anchor="middle" x="0" y="451" style="font-family: system-ui, -apple-system, 'Segoe UI', Roboto, 'Helvetica Neue', 'Noto Sans', 'Liberation Sans', Arial, sans-serif, 'Apple Color Emoji', 'Segoe UI Emoji', 'Segoe UI Symbol', 'Noto Color Emoji'; font-size: 10px; fill: rgb(80, 80, 80); fill-opacity: 1; white-space: pre;" transform="translate(328.29,0)">40</text></g><g class="xtick"><text text-anchor="middle" x="0" y="451" style="font-family: system-ui, -apple-system, 'Segoe UI', Roboto, 'Helvetica Neue', 'Noto Sans', 'Liberation Sans', Arial, sans-serif, 'Apple Color Emoji', 'Segoe UI Emoji', 'Segoe UI Symbol', 'Noto Color Emoji'; font-size: 10px; fill: rgb(80, 80, 80); fill-opacity: 1; white-space: pre;" transform="translate(465.87,0)">60</text></g><g class="xtick"><text text-anchor="middle" x="0" y="451" style="font-family: system-ui, -apple-system, 'Segoe UI', Roboto, 'Helvetica Neue', 'Noto Sans', 'Liberation Sans', Arial, sans-serif, 'Apple Color Emoji', 'Segoe UI Emoji', 'Segoe UI Symbol', 'Noto Color Emoji'; font-size: 10px; fill: rgb(80, 80, 80); fill-opacity: 1; white-space: pre;" transform="translate(603.46,0)">80</text></g><g class="xtick"><text text-anchor="middle" x="0" y="451" style="font-family: system-ui, -apple-system, 'Segoe UI', Roboto, 'Helvetica Neue', 'Noto Sans', 'Liberation Sans', Arial, sans-serif, 'Apple Color Emoji', 'Segoe UI Emoji', 'Segoe UI Symbol', 'Noto Color Emoji'; font-size: 10px; fill: rgb(80, 80, 80); fill-opacity: 1; white-space: pre;" transform="translate(741.04,0)">100</text></g><g class="xtick"><text text-anchor="middle" x="0" y="451" style="font-family: system-ui, -apple-system, 'Segoe UI', Roboto, 'Helvetica Neue', 'Noto Sans', 'Liberation Sans', Arial, sans-serif, 'Apple Color Emoji', 'Segoe UI Emoji', 'Segoe UI Symbol', 'Noto Color Emoji'; font-size: 10px; fill: rgb(80, 80, 80); fill-opacity: 1; white-space: pre;" transform="translate(878.62,0)">120</text></g><g class="xtick"><text text-anchor="middle" x="0" y="451" style="font-family: system-ui, -apple-system, 'Segoe UI', Roboto, 'Helvetica Neue', 'Noto Sans', 'Liberation Sans', Arial, sans-serif, 'Apple Color Emoji', 'Segoe UI Emoji', 'Segoe UI Symbol', 'Noto Color Emoji'; font-size: 10px; fill: rgb(80, 80, 80); fill-opacity: 1; white-space: pre;" transform="translate(1016.21,0)">140</text></g></g><g class="yaxislayer-above"><g class="ytick"><text text-anchor="end" x="54" y="3.5" transform="translate(0,435)" style="font-family: system-ui, -apple-system, 'Segoe UI', Roboto, 'Helvetica Neue', 'Noto Sans', 'Liberation Sans', Arial, sans-serif, 'Apple Color Emoji', 'Segoe UI Emoji', 'Segoe UI Symbol', 'Noto Color Emoji'; font-size: 10px; fill: rgb(80, 80, 80); fill-opacity: 1; white-space: pre;">0</text></g><g class="ytick"><text text-anchor="end" x="54" y="3.5" style="font-family: system-ui, -apple-system, 'Segoe UI', Roboto, 'Helvetica Neue', 'Noto Sans', 'Liberation Sans', Arial, sans-serif, 'Apple Color Emoji', 'Segoe UI Emoji', 'Segoe UI Symbol', 'Noto Color Emoji'; font-size: 10px; fill: rgb(80, 80, 80); fill-opacity: 1; white-space: pre;" transform="translate(0,388.88)">5</text></g><g class="ytick"><text text-anchor="end" x="54" y="3.5" style="font-family: system-ui, -apple-system, 'Segoe UI', Roboto, 'Helvetica Neue', 'Noto Sans', 'Liberation Sans', Arial, sans-serif, 'Apple Color Emoji', 'Segoe UI Emoji', 'Segoe UI Symbol', 'Noto Color Emoji'; font-size: 10px; fill: rgb(80, 80, 80); fill-opacity: 1; white-space: pre;" transform="translate(0,342.76)">10</text></g><g class="ytick"><text text-anchor="end" x="54" y="3.5" style="font-family: system-ui, -apple-system, 'Segoe UI', Roboto, 'Helvetica Neue', 'Noto Sans', 'Liberation Sans', Arial, sans-serif, 'Apple Color Emoji', 'Segoe UI Emoji', 'Segoe UI Symbol', 'Noto Color Emoji'; font-size: 10px; fill: rgb(80, 80, 80); fill-opacity: 1; white-space: pre;" transform="translate(0,296.63)">15</text></g><g class="ytick"><text text-anchor="end" x="54" y="3.5" style="font-family: system-ui, -apple-system, 'Segoe UI', Roboto, 'Helvetica Neue', 'Noto Sans', 'Liberation Sans', Arial, sans-serif, 'Apple Color Emoji', 'Segoe UI Emoji', 'Segoe UI Symbol', 'Noto Color Emoji'; font-size: 10px; fill: rgb(80, 80, 80); fill-opacity: 1; white-space: pre;" transform="translate(0,250.51)">20</text></g><g class="ytick"><text text-anchor="end" x="54" y="3.5" style="font-family: system-ui, -apple-system, 'Segoe UI', Roboto, 'Helvetica Neue', 'Noto Sans', 'Liberation Sans', Arial, sans-serif, 'Apple Color Emoji', 'Segoe UI Emoji', 'Segoe UI Symbol', 'Noto Color Emoji'; font-size: 10px; fill: rgb(80, 80, 80); fill-opacity: 1; white-space: pre;" transform="translate(0,204.39)">25</text></g><g class="ytick"><text text-anchor="end" x="54" y="3.5" style="font-family: system-ui, -apple-system, 'Segoe UI', Roboto, 'Helvetica Neue', 'Noto Sans', 'Liberation Sans', Arial, sans-serif, 'Apple Color Emoji', 'Segoe UI Emoji', 'Segoe UI Symbol', 'Noto Color Emoji'; font-size: 10px; fill: rgb(80, 80, 80); fill-opacity: 1; white-space: pre;" transform="translate(0,158.26999999999998)">30</text></g><g class="ytick"><text text-anchor="end" x="54" y="3.5" style="font-family: system-ui, -apple-system, 'Segoe UI', Roboto, 'Helvetica Neue', 'Noto Sans', 'Liberation Sans', Arial, sans-serif, 'Apple Color Emoji', 'Segoe UI Emoji', 'Segoe UI Symbol', 'Noto Color Emoji'; font-size: 10px; fill: rgb(80, 80, 80); fill-opacity: 1; white-space: pre;" transform="translate(0,112.15)">35</text></g><g class="ytick"><text text-anchor="end" x="54" y="3.5" style="font-family: system-ui, -apple-system, 'Segoe UI', Roboto, 'Helvetica Neue', 'Noto Sans', 'Liberation Sans', Arial, sans-serif, 'Apple Color Emoji', 'Segoe UI Emoji', 'Segoe UI Symbol', 'Noto Color Emoji'; font-size: 10px; fill: rgb(80, 80, 80); fill-opacity: 1; white-space: pre;" transform="translate(0,66.02)">40</text></g></g><g class="overaxes-above"/></g></g><g class="polarlayer"/><g class="smithlayer"/><g class="ternarylayer"/><g class="geolayer"/><g class="funnelarealayer"/><g class="pielayer"/><g class="iciclelayer"/><g class="treemaplayer"/><g class="sunburstlayer"/><g class="glimages"/><defs id="topdefs-a25a5f"><g class="clips"/></defs><g class="layer-above"><g class="imagelayer"/><g class="shapelayer"/></g><g class="infolayer"><g class="g-gtitle"><text class="gtitle" x="550" y="25" text-anchor="middle" dy="0em" style="opacity: 1; font-family: system-ui, -apple-system, 'Segoe UI', Roboto, 'Helvetica Neue', 'Noto Sans', 'Liberation Sans', Arial, sans-serif, 'Apple Color Emoji', 'Segoe UI Emoji', 'Segoe UI Symbol', 'Noto Color Emoji'; font-size: 20px; fill: rgb(60, 60, 60); fill-opacity: 1; white-space: pre;"><tspan class="line" dy="0em" x="550" y="25">Fastp: Sequence Quality</tspan><tspan class="line" dy="1.3em" x="550" y="25">​<tspan style="font-size:70%" dy="-0.6em">Read 1: Before filtering, 16 lines</tspan><tspan dy="0.42em">​</tspan></tspan></text></g><g class="g-xtitle"><text class="xtitle" x="572.5" y="487" text-anchor="middle" style="opacity: 1; font-family: system-ui, -apple-system, 'Segoe UI', Roboto, 'Helvetica Neue', 'Noto Sans', 'Liberation Sans', Arial, sans-serif, 'Apple Color Emoji', 'Segoe UI Emoji', 'Segoe UI Symbol', 'Noto Color Emoji'; font-size: 14px; fill: rgb(100, 100, 100); fill-opacity: 1; white-space: pre;">Read Position</text></g><g class="g-ytitle"><text class="ytitle" transform="rotate(-90,22,242.5)" x="22" y="242.5" text-anchor="middle" style="opacity: 1; font-family: system-ui, -apple-system, 'Segoe UI', Roboto, 'Helvetica Neue', 'Noto Sans', 'Liberation Sans', Arial, sans-serif, 'Apple Color Emoji', 'Segoe UI Emoji', 'Segoe UI Symbol', 'Noto Color Emoji'; font-size: 14px; fill: rgb(100, 100, 100); fill-opacity: 1; white-space: pre;">R1 Before filtering: Sequence Quality</text></g></g></svg>